<svg xmlns:xlink="http://www.w3.org/1999/xlink" width="75ex" height="18.176ex" style="font-size: 15px; vertical-align: -9.005ex; max-width: 450;" viewBox="0 -3948.7 32291.5 7825.7" role="img" focusable="false" xmlns="http://www.w3.org/2000/svg">
<defs>
<path stroke-width="1" id="E1-MJMATHI-50" d="M287 628Q287 635 230 637Q206 637 199 638T192 648Q192 649 194 659Q200 679 203 681T397 683Q587 682 600 680Q664 669 707 631T751 530Q751 453 685 389Q616 321 507 303Q500 302 402 301H307L277 182Q247 66 247 59Q247 55 248 54T255 50T272 48T305 46H336Q342 37 342 35Q342 19 335 5Q330 0 319 0Q316 0 282 1T182 2Q120 2 87 2T51 1Q33 1 33 11Q33 13 36 25Q40 41 44 43T67 46Q94 46 127 49Q141 52 146 61Q149 65 218 339T287 628ZM645 554Q645 567 643 575T634 597T609 619T560 635Q553 636 480 637Q463 637 445 637T416 636T404 636Q391 635 386 627Q384 621 367 550T332 412T314 344Q314 342 395 342H407H430Q542 342 590 392Q617 419 631 471T645 554Z"></path>
<path stroke-width="1" id="E1-MJMAIN-28" d="M94 250Q94 319 104 381T127 488T164 576T202 643T244 695T277 729T302 750H315H319Q333 750 333 741Q333 738 316 720T275 667T226 581T184 443T167 250T184 58T225 -81T274 -167T316 -220T333 -241Q333 -250 318 -250H315H302L274 -226Q180 -141 137 -14T94 250Z"></path>
<path stroke-width="1" id="E1-MJMATHI-78" d="M52 289Q59 331 106 386T222 442Q257 442 286 424T329 379Q371 442 430 442Q467 442 494 420T522 361Q522 332 508 314T481 292T458 288Q439 288 427 299T415 328Q415 374 465 391Q454 404 425 404Q412 404 406 402Q368 386 350 336Q290 115 290 78Q290 50 306 38T341 26Q378 26 414 59T463 140Q466 150 469 151T485 153H489Q504 153 504 145Q504 144 502 134Q486 77 440 33T333 -11Q263 -11 227 52Q186 -10 133 -10H127Q78 -10 57 16T35 71Q35 103 54 123T99 143Q142 143 142 101Q142 81 130 66T107 46T94 41L91 40Q91 39 97 36T113 29T132 26Q168 26 194 71Q203 87 217 139T245 247T261 313Q266 340 266 352Q266 380 251 392T217 404Q177 404 142 372T93 290Q91 281 88 280T72 278H58Q52 284 52 289Z"></path>
<path stroke-width="1" id="E1-MJMAIN-29" d="M60 749L64 750Q69 750 74 750H86L114 726Q208 641 251 514T294 250Q294 182 284 119T261 12T224 -76T186 -143T145 -194T113 -227T90 -246Q87 -249 86 -250H74Q66 -250 63 -250T58 -247T55 -238Q56 -237 66 -225Q221 -64 221 250T66 725Q56 737 55 738Q55 746 60 749Z"></path>
<path stroke-width="1" id="E1-MJMATHI-6C" d="M117 59Q117 26 142 26Q179 26 205 131Q211 151 215 152Q217 153 225 153H229Q238 153 241 153T246 151T248 144Q247 138 245 128T234 90T214 43T183 6T137 -11Q101 -11 70 11T38 85Q38 97 39 102L104 360Q167 615 167 623Q167 626 166 628T162 632T157 634T149 635T141 636T132 637T122 637Q112 637 109 637T101 638T95 641T94 647Q94 649 96 661Q101 680 107 682T179 688Q194 689 213 690T243 693T254 694Q266 694 266 686Q266 675 193 386T118 83Q118 81 118 75T117 65V59Z"></path>
<path stroke-width="1" id="E1-MJMATHI-6F" d="M201 -11Q126 -11 80 38T34 156Q34 221 64 279T146 380Q222 441 301 441Q333 441 341 440Q354 437 367 433T402 417T438 387T464 338T476 268Q476 161 390 75T201 -11ZM121 120Q121 70 147 48T206 26Q250 26 289 58T351 142Q360 163 374 216T388 308Q388 352 370 375Q346 405 306 405Q243 405 195 347Q158 303 140 230T121 120Z"></path>
<path stroke-width="1" id="E1-MJMATHI-67" d="M311 43Q296 30 267 15T206 0Q143 0 105 45T66 160Q66 265 143 353T314 442Q361 442 401 394L404 398Q406 401 409 404T418 412T431 419T447 422Q461 422 470 413T480 394Q480 379 423 152T363 -80Q345 -134 286 -169T151 -205Q10 -205 10 -137Q10 -111 28 -91T74 -71Q89 -71 102 -80T116 -111Q116 -121 114 -130T107 -144T99 -154T92 -162L90 -164H91Q101 -167 151 -167Q189 -167 211 -155Q234 -144 254 -122T282 -75Q288 -56 298 -13Q311 35 311 43ZM384 328L380 339Q377 350 375 354T369 368T359 382T346 393T328 402T306 405Q262 405 221 352Q191 313 171 233T151 117Q151 38 213 38Q269 38 323 108L331 118L384 328Z"></path>
<path stroke-width="1" id="E1-MJMAIN-32" d="M109 429Q82 429 66 447T50 491Q50 562 103 614T235 666Q326 666 387 610T449 465Q449 422 429 383T381 315T301 241Q265 210 201 149L142 93L218 92Q375 92 385 97Q392 99 409 186V189H449V186Q448 183 436 95T421 3V0H50V19V31Q50 38 56 46T86 81Q115 113 136 137Q145 147 170 174T204 211T233 244T261 278T284 308T305 340T320 369T333 401T340 431T343 464Q343 527 309 573T212 619Q179 619 154 602T119 569T109 550Q109 549 114 549Q132 549 151 535T170 489Q170 464 154 447T109 429Z"></path>
<path stroke-width="1" id="E1-MJMAIN-2B" d="M56 237T56 250T70 270H369V420L370 570Q380 583 389 583Q402 583 409 568V270H707Q722 262 722 250T707 230H409V-68Q401 -82 391 -82H389H387Q375 -82 369 -68V230H70Q56 237 56 250Z"></path>
<path stroke-width="1" id="E1-MJMATHI-51" d="M399 -80Q399 -47 400 -30T402 -11V-7L387 -11Q341 -22 303 -22Q208 -22 138 35T51 201Q50 209 50 244Q50 346 98 438T227 601Q351 704 476 704Q514 704 524 703Q621 689 680 617T740 435Q740 255 592 107Q529 47 461 16L444 8V3Q444 2 449 -24T470 -66T516 -82Q551 -82 583 -60T625 -3Q631 11 638 11Q647 11 649 2Q649 -6 639 -34T611 -100T557 -165T481 -194Q399 -194 399 -87V-80ZM636 468Q636 523 621 564T580 625T530 655T477 665Q429 665 379 640Q277 591 215 464T153 216Q153 110 207 59Q231 38 236 38V46Q236 86 269 120T347 155Q372 155 390 144T417 114T429 82T435 55L448 64Q512 108 557 185T619 334T636 468ZM314 18Q362 18 404 39L403 49Q399 104 366 115Q354 117 347 117Q344 117 341 117T337 118Q317 118 296 98T274 52Q274 18 314 18Z"></path>
<path stroke-width="1" id="E1-MJMAIN-3D" d="M56 347Q56 360 70 367H707Q722 359 722 347Q722 336 708 328L390 327H72Q56 332 56 347ZM56 153Q56 168 72 173H708Q722 163 722 153Q722 140 707 133H70Q56 140 56 153Z"></path>
<path stroke-width="1" id="E1-MJMAIN-7B" d="M434 -231Q434 -244 428 -250H410Q281 -250 230 -184Q225 -177 222 -172T217 -161T213 -148T211 -133T210 -111T209 -84T209 -47T209 0Q209 21 209 53Q208 142 204 153Q203 154 203 155Q189 191 153 211T82 231Q71 231 68 234T65 250T68 266T82 269Q116 269 152 289T203 345Q208 356 208 377T209 529V579Q209 634 215 656T244 698Q270 724 324 740Q361 748 377 749Q379 749 390 749T408 750H428Q434 744 434 732Q434 719 431 716Q429 713 415 713Q362 710 332 689T296 647Q291 634 291 499V417Q291 370 288 353T271 314Q240 271 184 255L170 250L184 245Q202 239 220 230T262 196T290 137Q291 131 291 1Q291 -134 296 -147Q306 -174 339 -192T415 -213Q429 -213 431 -216Q434 -219 434 -231Z"></path>
<path stroke-width="1" id="E1-MJMAIN-30" d="M96 585Q152 666 249 666Q297 666 345 640T423 548Q460 465 460 320Q460 165 417 83Q397 41 362 16T301 -15T250 -22Q224 -22 198 -16T137 16T82 83Q39 165 39 320Q39 494 96 585ZM321 597Q291 629 250 629Q208 629 178 597Q153 571 145 525T137 333Q137 175 145 125T181 46Q209 16 250 16Q290 16 318 46Q347 76 354 130T362 333Q362 478 354 524T321 597Z"></path>
<path stroke-width="1" id="E1-MJMAIN-2C" d="M78 35T78 60T94 103T137 121Q165 121 187 96T210 8Q210 -27 201 -60T180 -117T154 -158T130 -185T117 -194Q113 -194 104 -185T95 -172Q95 -168 106 -156T131 -126T157 -76T173 -3V9L172 8Q170 7 167 6T161 3T152 1T140 0Q113 0 96 17Z"></path>
<path stroke-width="1" id="E1-MJMAIN-2260" d="M166 -215T159 -215T147 -212T141 -204T139 -197Q139 -190 144 -183L306 133H70Q56 140 56 153Q56 168 72 173H327L406 327H72Q56 332 56 347Q56 360 70 367H426Q597 702 602 707Q605 716 618 716Q625 716 630 712T636 703T638 696Q638 692 471 367H707Q722 359 722 347Q722 336 708 328L451 327L371 173H708Q722 163 722 153Q722 140 707 133H351Q175 -210 170 -212Q166 -215 159 -215Z"></path>
<path stroke-width="1" id="E1-MJSZ4-23A7" d="M712 899L718 893V876V865Q718 854 704 846Q627 793 577 710T510 525Q510 524 509 521Q505 493 504 349Q504 345 504 334Q504 277 504 240Q504 -2 503 -4Q502 -8 494 -9T444 -10Q392 -10 390 -9Q387 -8 386 -5Q384 5 384 230Q384 262 384 312T383 382Q383 481 392 535T434 656Q510 806 664 892L677 899H712Z"></path>
<path stroke-width="1" id="E1-MJSZ4-23A9" d="M718 -893L712 -899H677L666 -893Q542 -825 468 -714T385 -476Q384 -466 384 -282Q384 3 385 5L389 9Q392 10 444 10Q486 10 494 9T503 4Q504 2 504 -239V-310V-366Q504 -470 508 -513T530 -609Q546 -657 569 -698T617 -767T661 -812T699 -843T717 -856T718 -876V-893Z"></path>
<path stroke-width="1" id="E1-MJSZ4-23A8" d="M389 1159Q391 1160 455 1160Q496 1160 498 1159Q501 1158 502 1155Q504 1145 504 924Q504 691 503 682Q494 549 425 439T243 259L229 250L243 241Q349 175 421 66T503 -182Q504 -191 504 -424Q504 -600 504 -629T499 -659H498Q496 -660 444 -660T390 -659Q387 -658 386 -655Q384 -645 384 -425V-282Q384 -176 377 -116T342 10Q325 54 301 92T255 155T214 196T183 222T171 232Q170 233 170 250T171 268Q171 269 191 284T240 331T300 407T354 524T383 679Q384 691 384 925Q384 1152 385 1155L389 1159Z"></path>
<path stroke-width="1" id="E1-MJSZ4-23AA" d="M384 150V266Q384 304 389 309Q391 310 455 310Q496 310 498 309Q502 308 503 298Q504 283 504 150Q504 32 504 12T499 -9H498Q496 -10 444 -10T390 -9Q386 -8 385 2Q384 17 384 150Z"></path>
</defs>
<g stroke="currentColor" fill="currentColor" stroke-width="0" transform="matrix(1 0 0 -1 0 0)">
<g transform="translate(6156,0)">
<g transform="translate(167,0)">
<g transform="translate(-11,0)">
<g transform="translate(0,2126)">
 <use xlink:href="#E1-MJMATHI-50" x="0" y="0"></use>
 <use xlink:href="#E1-MJMAIN-28" x="751" y="0"></use>
 <use xlink:href="#E1-MJMATHI-78" x="1141" y="0"></use>
 <use xlink:href="#E1-MJMAIN-29" x="1713" y="0"></use>
 <use xlink:href="#E1-MJMATHI-6C" x="2103" y="0"></use>
 <use xlink:href="#E1-MJMATHI-6F" x="2401" y="0"></use>
 <use xlink:href="#E1-MJMATHI-67" x="2887" y="0"></use>
<g transform="translate(3367,0)">
<g transform="translate(120,0)">
<rect stroke="none" width="5588" height="60" x="0" y="220"></rect>
<g transform="translate(1492,819)">
<g></g>
 <use xlink:href="#E1-MJMAIN-32" x="0" y="0"></use>
 <use xlink:href="#E1-MJMATHI-50" x="500" y="0"></use>
 <use xlink:href="#E1-MJMAIN-28" x="1252" y="0"></use>
 <use xlink:href="#E1-MJMATHI-78" x="1641" y="0"></use>
 <use xlink:href="#E1-MJMAIN-29" x="2214" y="0"></use>
</g>
<g transform="translate(60,-880)">
<g></g>
 <use xlink:href="#E1-MJMATHI-50" x="0" y="0"></use>
 <use xlink:href="#E1-MJMAIN-28" x="751" y="0"></use>
 <use xlink:href="#E1-MJMATHI-78" x="1141" y="0"></use>
 <use xlink:href="#E1-MJMAIN-29" x="1713" y="0"></use>
 <use xlink:href="#E1-MJMAIN-2B" x="2325" y="0"></use>
 <use xlink:href="#E1-MJMATHI-51" x="3325" y="0"></use>
 <use xlink:href="#E1-MJMAIN-28" x="4117" y="0"></use>
 <use xlink:href="#E1-MJMATHI-78" x="4506" y="0"></use>
 <use xlink:href="#E1-MJMAIN-29" x="5079" y="0"></use>
</g>
</g>
</g>
 <use xlink:href="#E1-MJMAIN-2B" x="9418" y="0"></use>
 <use xlink:href="#E1-MJMATHI-51" x="10419" y="0"></use>
 <use xlink:href="#E1-MJMAIN-28" x="11210" y="0"></use>
 <use xlink:href="#E1-MJMATHI-78" x="11600" y="0"></use>
 <use xlink:href="#E1-MJMAIN-29" x="12172" y="0"></use>
 <use xlink:href="#E1-MJMATHI-6C" x="12562" y="0"></use>
 <use xlink:href="#E1-MJMATHI-6F" x="12860" y="0"></use>
 <use xlink:href="#E1-MJMATHI-67" x="13346" y="0"></use>
<g transform="translate(13826,0)">
<g transform="translate(120,0)">
<rect stroke="none" width="5588" height="60" x="0" y="220"></rect>
<g transform="translate(1472,819)">
<g></g>
 <use xlink:href="#E1-MJMAIN-32" x="0" y="0"></use>
 <use xlink:href="#E1-MJMATHI-51" x="500" y="0"></use>
 <use xlink:href="#E1-MJMAIN-28" x="1292" y="0"></use>
 <use xlink:href="#E1-MJMATHI-78" x="1681" y="0"></use>
 <use xlink:href="#E1-MJMAIN-29" x="2254" y="0"></use>
</g>
<g transform="translate(60,-880)">
<g></g>
 <use xlink:href="#E1-MJMATHI-50" x="0" y="0"></use>
 <use xlink:href="#E1-MJMAIN-28" x="751" y="0"></use>
 <use xlink:href="#E1-MJMATHI-78" x="1141" y="0"></use>
 <use xlink:href="#E1-MJMAIN-29" x="1713" y="0"></use>
 <use xlink:href="#E1-MJMAIN-2B" x="2325" y="0"></use>
 <use xlink:href="#E1-MJMATHI-51" x="3325" y="0"></use>
 <use xlink:href="#E1-MJMAIN-28" x="4117" y="0"></use>
 <use xlink:href="#E1-MJMATHI-78" x="4506" y="0"></use>
 <use xlink:href="#E1-MJMAIN-29" x="5079" y="0"></use>
</g>
</g>
</g>
</g>
<g transform="translate(0,-1580)">
 <use xlink:href="#E1-MJMAIN-3D" x="277" y="0"></use>
<g transform="translate(1334,0)">
<g transform="translate(0,2226)">
 <use xlink:href="#E1-MJSZ4-23A7" x="0" y="-900"></use>
<g transform="translate(0,-1106.805900621118) scale(1,0.7903726708074534)">
 <use xlink:href="#E1-MJSZ4-23AA"></use>
</g>
 <use xlink:href="#E1-MJSZ4-23A8" x="0" y="-2227"></use>
<g transform="translate(0,-3083.305900621118) scale(1,0.7903726708074534)">
 <use xlink:href="#E1-MJSZ4-23AA"></use>
</g>
 <use xlink:href="#E1-MJSZ4-23A9" x="0" y="-3053"></use>
</g>
<g transform="translate(1056,0)">
<g transform="translate(-11,0)">
<g transform="translate(0,1426)">
 <use xlink:href="#E1-MJMAIN-30" x="0" y="0"></use>
 <use xlink:href="#E1-MJMAIN-2C" x="500" y="0"></use>
 <use xlink:href="#E1-MJMATHI-50" x="1195" y="0"></use>
 <use xlink:href="#E1-MJMAIN-28" x="1947" y="0"></use>
 <use xlink:href="#E1-MJMATHI-78" x="2336" y="0"></use>
 <use xlink:href="#E1-MJMAIN-29" x="2909" y="0"></use>
 <use xlink:href="#E1-MJMAIN-3D" x="3576" y="0"></use>
 <use xlink:href="#E1-MJMATHI-51" x="4632" y="0"></use>
 <use xlink:href="#E1-MJMAIN-28" x="5424" y="0"></use>
 <use xlink:href="#E1-MJMATHI-78" x="5813" y="0"></use>
 <use xlink:href="#E1-MJMAIN-29" x="6386" y="0"></use>
 <use xlink:href="#E1-MJMAIN-3D" x="7053" y="0"></use>
 <use xlink:href="#E1-MJMAIN-30" x="8109" y="0"></use>
</g>
<g transform="translate(0,-25)">
 <use xlink:href="#E1-MJMATHI-51" x="0" y="0"></use>
 <use xlink:href="#E1-MJMAIN-28" x="791" y="0"></use>
 <use xlink:href="#E1-MJMATHI-78" x="1181" y="0"></use>
 <use xlink:href="#E1-MJMAIN-29" x="1753" y="0"></use>
 <use xlink:href="#E1-MJMATHI-6C" x="2143" y="0"></use>
 <use xlink:href="#E1-MJMATHI-6F" x="2441" y="0"></use>
 <use xlink:href="#E1-MJMATHI-67" x="2927" y="0"></use>
 <use xlink:href="#E1-MJMAIN-32" x="3407" y="0"></use>
 <use xlink:href="#E1-MJMAIN-2C" x="3908" y="0"></use>
 <use xlink:href="#E1-MJMATHI-50" x="4603" y="0"></use>
 <use xlink:href="#E1-MJMAIN-28" x="5354" y="0"></use>
 <use xlink:href="#E1-MJMATHI-78" x="5744" y="0"></use>
 <use xlink:href="#E1-MJMAIN-29" x="6316" y="0"></use>
 <use xlink:href="#E1-MJMAIN-3D" x="6983" y="0"></use>
 <use xlink:href="#E1-MJMAIN-30" x="8040" y="0"></use>
 <use xlink:href="#E1-MJMAIN-2C" x="8540" y="0"></use>
 <use xlink:href="#E1-MJMATHI-51" x="8985" y="0"></use>
 <use xlink:href="#E1-MJMAIN-28" x="9777" y="0"></use>
 <use xlink:href="#E1-MJMATHI-78" x="10166" y="0"></use>
 <use xlink:href="#E1-MJMAIN-29" x="10739" y="0"></use>
 <use xlink:href="#E1-MJMAIN-2260" x="11406" y="0"></use>
 <use xlink:href="#E1-MJMAIN-30" x="12462" y="0"></use>
</g>
<g transform="translate(0,-1476)">
 <use xlink:href="#E1-MJMATHI-50" x="0" y="0"></use>
 <use xlink:href="#E1-MJMAIN-28" x="751" y="0"></use>
 <use xlink:href="#E1-MJMATHI-78" x="1141" y="0"></use>
 <use xlink:href="#E1-MJMAIN-29" x="1713" y="0"></use>
 <use xlink:href="#E1-MJMATHI-6C" x="2103" y="0"></use>
 <use xlink:href="#E1-MJMATHI-6F" x="2401" y="0"></use>
 <use xlink:href="#E1-MJMATHI-67" x="2887" y="0"></use>
 <use xlink:href="#E1-MJMAIN-32" x="3367" y="0"></use>
 <use xlink:href="#E1-MJMAIN-2C" x="3868" y="0"></use>
 <use xlink:href="#E1-MJMATHI-51" x="4563" y="0"></use>
 <use xlink:href="#E1-MJMAIN-28" x="5354" y="0"></use>
 <use xlink:href="#E1-MJMATHI-78" x="5744" y="0"></use>
 <use xlink:href="#E1-MJMAIN-29" x="6316" y="0"></use>
 <use xlink:href="#E1-MJMAIN-2260" x="6983" y="0"></use>
 <use xlink:href="#E1-MJMAIN-30" x="8040" y="0"></use>
 <use xlink:href="#E1-MJMAIN-2C" x="8540" y="0"></use>
 <use xlink:href="#E1-MJMATHI-50" x="8985" y="0"></use>
 <use xlink:href="#E1-MJMAIN-28" x="9737" y="0"></use>
 <use xlink:href="#E1-MJMATHI-78" x="10126" y="0"></use>
 <use xlink:href="#E1-MJMAIN-29" x="10699" y="0"></use>
 <use xlink:href="#E1-MJMAIN-3D" x="11366" y="0"></use>
 <use xlink:href="#E1-MJMAIN-30" x="12422" y="0"></use>
</g>
</g>
</g>
</g>
</g>
</g>
</g>
</g>
</g>
</svg>