<svg xmlns:xlink="http://www.w3.org/1999/xlink" width="1.273ex" height="2.176ex" style="font-size: 15px; vertical-align: -0.338ex;" viewBox="0 -791.3 548.3 936.9" role="img" focusable="false" xmlns="http://www.w3.org/2000/svg">
<defs>
<path stroke-width="1" id="E1-MJMATHI-3C5" d="M413 384Q413 406 432 424T473 443Q492 443 507 425T523 367Q523 334 508 270T468 153Q424 63 373 27T282 -10H268Q220 -10 186 2T135 36T111 78T104 121Q104 170 138 262T173 379Q173 380 173 381Q173 390 173 393T169 400T158 404H154Q131 404 112 385T82 344T65 302T57 280Q55 278 41 278H27Q21 284 21 287Q21 299 34 333T82 404T161 441Q200 441 225 419T250 355Q248 336 247 334Q247 331 232 291T201 199T185 118Q185 68 211 47T275 26Q317 26 355 57T416 132T452 216T465 277Q465 301 457 318T439 343T421 361T413 384Z"></path>
<path stroke-width="1" id="E1-MJMAIN-5E" d="M112 560L249 694L257 686Q387 562 387 560L361 531Q359 532 303 581L250 627L195 580Q182 569 169 557T148 538L140 532Q138 530 125 546L112 560Z"></path>
</defs>
<g stroke="currentColor" fill="currentColor" stroke-width="0" transform="matrix(1 0 0 -1 0 0)">
 <use xlink:href="#E1-MJMATHI-3C5" x="0" y="0"></use>
 <use xlink:href="#E1-MJMAIN-5E" x="47" y="21"></use>
</g>
</svg>