<svg xmlns:xlink="http://www.w3.org/1999/xlink" width="75ex" height="29.176ex" style="font-size: 15px; vertical-align: -14.505ex; max-width: 450;" viewBox="0 -6316.8 32291.5 12561.8" role="img" focusable="false" xmlns="http://www.w3.org/2000/svg">
<defs>
<path stroke-width="1" id="E1-MJMATHI-44" d="M287 628Q287 635 230 637Q207 637 200 638T193 647Q193 655 197 667T204 682Q206 683 403 683Q570 682 590 682T630 676Q702 659 752 597T803 431Q803 275 696 151T444 3L430 1L236 0H125H72Q48 0 41 2T33 11Q33 13 36 25Q40 41 44 43T67 46Q94 46 127 49Q141 52 146 61Q149 65 218 339T287 628ZM703 469Q703 507 692 537T666 584T629 613T590 629T555 636Q553 636 541 636T512 636T479 637H436Q392 637 386 627Q384 623 313 339T242 52Q242 48 253 48T330 47Q335 47 349 47T373 46Q499 46 581 128Q617 164 640 212T683 339T703 469Z"></path>
<path stroke-width="1" id="E1-MJMATHI-4A" d="M447 625Q447 637 354 637H329Q323 642 323 645T325 664Q329 677 335 683H352Q393 681 498 681Q541 681 568 681T605 682T619 682Q633 682 633 672Q633 670 630 658Q626 642 623 640T604 637Q552 637 545 623Q541 610 483 376Q420 128 419 127Q397 64 333 21T195 -22Q137 -22 97 8T57 88Q57 130 80 152T132 174Q177 174 182 130Q182 98 164 80T123 56Q115 54 115 53T122 44Q148 15 197 15Q235 15 271 47T324 130Q328 142 387 380T447 625Z"></path>
<path stroke-width="1" id="E1-MJMATHI-53" d="M308 24Q367 24 416 76T466 197Q466 260 414 284Q308 311 278 321T236 341Q176 383 176 462Q176 523 208 573T273 648Q302 673 343 688T407 704H418H425Q521 704 564 640Q565 640 577 653T603 682T623 704Q624 704 627 704T632 705Q645 705 645 698T617 577T585 459T569 456Q549 456 549 465Q549 471 550 475Q550 478 551 494T553 520Q553 554 544 579T526 616T501 641Q465 662 419 662Q362 662 313 616T263 510Q263 480 278 458T319 427Q323 425 389 408T456 390Q490 379 522 342T554 242Q554 216 546 186Q541 164 528 137T492 78T426 18T332 -20Q320 -22 298 -22Q199 -22 144 33L134 44L106 13Q83 -14 78 -18T65 -22Q52 -22 52 -14Q52 -11 110 221Q112 227 130 227H143Q149 221 149 216Q149 214 148 207T144 186T142 153Q144 114 160 87T203 47T255 29T308 24Z"></path>
<path stroke-width="1" id="E1-MJMAIN-28" d="M94 250Q94 319 104 381T127 488T164 576T202 643T244 695T277 729T302 750H315H319Q333 750 333 741Q333 738 316 720T275 667T226 581T184 443T167 250T184 58T225 -81T274 -167T316 -220T333 -241Q333 -250 318 -250H315H302L274 -226Q180 -141 137 -14T94 250Z"></path>
<path stroke-width="1" id="E1-MJMATHI-50" d="M287 628Q287 635 230 637Q206 637 199 638T192 648Q192 649 194 659Q200 679 203 681T397 683Q587 682 600 680Q664 669 707 631T751 530Q751 453 685 389Q616 321 507 303Q500 302 402 301H307L277 182Q247 66 247 59Q247 55 248 54T255 50T272 48T305 46H336Q342 37 342 35Q342 19 335 5Q330 0 319 0Q316 0 282 1T182 2Q120 2 87 2T51 1Q33 1 33 11Q33 13 36 25Q40 41 44 43T67 46Q94 46 127 49Q141 52 146 61Q149 65 218 339T287 628ZM645 554Q645 567 643 575T634 597T609 619T560 635Q553 636 480 637Q463 637 445 637T416 636T404 636Q391 635 386 627Q384 621 367 550T332 412T314 344Q314 342 395 342H407H430Q542 342 590 392Q617 419 631 471T645 554Z"></path>
<path stroke-width="1" id="E1-MJMAIN-2225" d="M133 736Q138 750 153 750Q164 750 170 739Q172 735 172 250T170 -239Q164 -250 152 -250Q144 -250 138 -244L137 -243Q133 -241 133 -179T132 250Q132 731 133 736ZM329 739Q334 750 346 750Q353 750 361 744L362 743Q366 741 366 679T367 250T367 -178T362 -243L361 -244Q355 -250 347 -250Q335 -250 329 -239Q327 -235 327 250T329 739Z"></path>
<path stroke-width="1" id="E1-MJMATHI-51" d="M399 -80Q399 -47 400 -30T402 -11V-7L387 -11Q341 -22 303 -22Q208 -22 138 35T51 201Q50 209 50 244Q50 346 98 438T227 601Q351 704 476 704Q514 704 524 703Q621 689 680 617T740 435Q740 255 592 107Q529 47 461 16L444 8V3Q444 2 449 -24T470 -66T516 -82Q551 -82 583 -60T625 -3Q631 11 638 11Q647 11 649 2Q649 -6 639 -34T611 -100T557 -165T481 -194Q399 -194 399 -87V-80ZM636 468Q636 523 621 564T580 625T530 655T477 665Q429 665 379 640Q277 591 215 464T153 216Q153 110 207 59Q231 38 236 38V46Q236 86 269 120T347 155Q372 155 390 144T417 114T429 82T435 55L448 64Q512 108 557 185T619 334T636 468ZM314 18Q362 18 404 39L403 49Q399 104 366 115Q354 117 347 117Q344 117 341 117T337 118Q317 118 296 98T274 52Q274 18 314 18Z"></path>
<path stroke-width="1" id="E1-MJMAIN-29" d="M60 749L64 750Q69 750 74 750H86L114 726Q208 641 251 514T294 250Q294 182 284 119T261 12T224 -76T186 -143T145 -194T113 -227T90 -246Q87 -249 86 -250H74Q66 -250 63 -250T58 -247T55 -238Q56 -237 66 -225Q221 -64 221 250T66 725Q56 737 55 738Q55 746 60 749Z"></path>
<path stroke-width="1" id="E1-MJMAIN-3D" d="M56 347Q56 360 70 367H707Q722 359 722 347Q722 336 708 328L390 327H72Q56 332 56 347ZM56 153Q56 168 72 173H708Q722 163 722 153Q722 140 707 133H70Q56 140 56 153Z"></path>
<path stroke-width="1" id="E1-MJMAIN-31" d="M213 578L200 573Q186 568 160 563T102 556H83V602H102Q149 604 189 617T245 641T273 663Q275 666 285 666Q294 666 302 660V361L303 61Q310 54 315 52T339 48T401 46H427V0H416Q395 3 257 3Q121 3 100 0H88V46H114Q136 46 152 46T177 47T193 50T201 52T207 57T213 61V578Z"></path>
<path stroke-width="1" id="E1-MJMAIN-32" d="M109 429Q82 429 66 447T50 491Q50 562 103 614T235 666Q326 666 387 610T449 465Q449 422 429 383T381 315T301 241Q265 210 201 149L142 93L218 92Q375 92 385 97Q392 99 409 186V189H449V186Q448 183 436 95T421 3V0H50V19V31Q50 38 56 46T86 81Q115 113 136 137Q145 147 170 174T204 211T233 244T261 278T284 308T305 340T320 369T333 401T340 431T343 464Q343 527 309 573T212 619Q179 619 154 602T119 569T109 550Q109 549 114 549Q132 549 151 535T170 489Q170 464 154 447T109 429Z"></path>
<path stroke-width="1" id="E1-MJMAIN-5B" d="M118 -250V750H255V710H158V-210H255V-250H118Z"></path>
<path stroke-width="1" id="E1-MJMATHI-4B" d="M285 628Q285 635 228 637Q205 637 198 638T191 647Q191 649 193 661Q199 681 203 682Q205 683 214 683H219Q260 681 355 681Q389 681 418 681T463 682T483 682Q500 682 500 674Q500 669 497 660Q496 658 496 654T495 648T493 644T490 641T486 639T479 638T470 637T456 637Q416 636 405 634T387 623L306 305Q307 305 490 449T678 597Q692 611 692 620Q692 635 667 637Q651 637 651 648Q651 650 654 662T659 677Q662 682 676 682Q680 682 711 681T791 680Q814 680 839 681T869 682Q889 682 889 672Q889 650 881 642Q878 637 862 637Q787 632 726 586Q710 576 656 534T556 455L509 418L518 396Q527 374 546 329T581 244Q656 67 661 61Q663 59 666 57Q680 47 717 46H738Q744 38 744 37T741 19Q737 6 731 0H720Q680 3 625 3Q503 3 488 0H478Q472 6 472 9T474 27Q478 40 480 43T491 46H494Q544 46 544 71Q544 75 517 141T485 216L427 354L359 301L291 248L268 155Q245 63 245 58Q245 51 253 49T303 46H334Q340 37 340 35Q340 19 333 5Q328 0 317 0Q314 0 280 1T180 2Q118 2 85 2T49 1Q31 1 31 11Q31 13 34 25Q38 41 42 43T65 46Q92 46 125 49Q139 52 144 61Q147 65 216 339T285 628Z"></path>
<path stroke-width="1" id="E1-MJMATHI-4C" d="M228 637Q194 637 192 641Q191 643 191 649Q191 673 202 682Q204 683 217 683Q271 680 344 680Q485 680 506 683H518Q524 677 524 674T522 656Q517 641 513 637H475Q406 636 394 628Q387 624 380 600T313 336Q297 271 279 198T252 88L243 52Q243 48 252 48T311 46H328Q360 46 379 47T428 54T478 72T522 106T564 161Q580 191 594 228T611 270Q616 273 628 273H641Q647 264 647 262T627 203T583 83T557 9Q555 4 553 3T537 0T494 -1Q483 -1 418 -1T294 0H116Q32 0 32 10Q32 17 34 24Q39 43 44 45Q48 46 59 46H65Q92 46 125 49Q139 52 144 61Q147 65 216 339T285 628Q285 635 228 637Z"></path>
<path stroke-width="1" id="E1-MJMAIN-2B" d="M56 237T56 250T70 270H369V420L370 570Q380 583 389 583Q402 583 409 568V270H707Q722 262 722 250T707 230H409V-68Q401 -82 391 -82H389H387Q375 -82 369 -68V230H70Q56 237 56 250Z"></path>
<path stroke-width="1" id="E1-MJMAIN-5D" d="M22 710V750H159V-250H22V-210H119V710H22Z"></path>
<path stroke-width="1" id="E1-MJSZ2-222B" d="M114 -798Q132 -824 165 -824H167Q195 -824 223 -764T275 -600T320 -391T362 -164Q365 -143 367 -133Q439 292 523 655T645 1127Q651 1145 655 1157T672 1201T699 1257T733 1306T777 1346T828 1360Q884 1360 912 1325T944 1245Q944 1220 932 1205T909 1186T887 1183Q866 1183 849 1198T832 1239Q832 1287 885 1296L882 1300Q879 1303 874 1307T866 1313Q851 1323 833 1323Q819 1323 807 1311T775 1255T736 1139T689 936T633 628Q574 293 510 -5T410 -437T355 -629Q278 -862 165 -862Q125 -862 92 -831T55 -746Q55 -711 74 -698T112 -685Q133 -685 150 -700T167 -741Q167 -789 114 -798Z"></path>
<path stroke-width="1" id="E1-MJMATHI-78" d="M52 289Q59 331 106 386T222 442Q257 442 286 424T329 379Q371 442 430 442Q467 442 494 420T522 361Q522 332 508 314T481 292T458 288Q439 288 427 299T415 328Q415 374 465 391Q454 404 425 404Q412 404 406 402Q368 386 350 336Q290 115 290 78Q290 50 306 38T341 26Q378 26 414 59T463 140Q466 150 469 151T485 153H489Q504 153 504 145Q504 144 502 134Q486 77 440 33T333 -11Q263 -11 227 52Q186 -10 133 -10H127Q78 -10 57 16T35 71Q35 103 54 123T99 143Q142 143 142 101Q142 81 130 66T107 46T94 41L91 40Q91 39 97 36T113 29T132 26Q168 26 194 71Q203 87 217 139T245 247T261 313Q266 340 266 352Q266 380 251 392T217 404Q177 404 142 372T93 290Q91 281 88 280T72 278H58Q52 284 52 289Z"></path>
<path stroke-width="1" id="E1-MJMAIN-2C" d="M78 35T78 60T94 103T137 121Q165 121 187 96T210 8Q210 -27 201 -60T180 -117T154 -158T130 -185T117 -194Q113 -194 104 -185T95 -172Q95 -168 106 -156T131 -126T157 -76T173 -3V9L172 8Q170 7 167 6T161 3T152 1T140 0Q113 0 96 17Z"></path>
<path stroke-width="1" id="E1-MJMATHI-79" d="M21 287Q21 301 36 335T84 406T158 442Q199 442 224 419T250 355Q248 336 247 334Q247 331 231 288T198 191T182 105Q182 62 196 45T238 27Q261 27 281 38T312 61T339 94Q339 95 344 114T358 173T377 247Q415 397 419 404Q432 431 462 431Q475 431 483 424T494 412T496 403Q496 390 447 193T391 -23Q363 -106 294 -155T156 -205Q111 -205 77 -183T43 -117Q43 -95 50 -80T69 -58T89 -48T106 -45Q150 -45 150 -87Q150 -107 138 -122T115 -142T102 -147L99 -148Q101 -153 118 -160T152 -167H160Q177 -167 186 -165Q219 -156 247 -127T290 -65T313 -9T321 21L315 17Q309 13 296 6T270 -6Q250 -11 231 -11Q185 -11 150 11T104 82Q103 89 103 113Q103 170 138 262T173 379Q173 380 173 381Q173 390 173 393T169 400T158 404H154Q131 404 112 385T82 344T65 302T57 280Q55 278 41 278H27Q21 284 21 287Z"></path>
<path stroke-width="1" id="E1-MJMATHI-6C" d="M117 59Q117 26 142 26Q179 26 205 131Q211 151 215 152Q217 153 225 153H229Q238 153 241 153T246 151T248 144Q247 138 245 128T234 90T214 43T183 6T137 -11Q101 -11 70 11T38 85Q38 97 39 102L104 360Q167 615 167 623Q167 626 166 628T162 632T157 634T149 635T141 636T132 637T122 637Q112 637 109 637T101 638T95 641T94 647Q94 649 96 661Q101 680 107 682T179 688Q194 689 213 690T243 693T254 694Q266 694 266 686Q266 675 193 386T118 83Q118 81 118 75T117 65V59Z"></path>
<path stroke-width="1" id="E1-MJMATHI-6F" d="M201 -11Q126 -11 80 38T34 156Q34 221 64 279T146 380Q222 441 301 441Q333 441 341 440Q354 437 367 433T402 417T438 387T464 338T476 268Q476 161 390 75T201 -11ZM121 120Q121 70 147 48T206 26Q250 26 289 58T351 142Q360 163 374 216T388 308Q388 352 370 375Q346 405 306 405Q243 405 195 347Q158 303 140 230T121 120Z"></path>
<path stroke-width="1" id="E1-MJMATHI-67" d="M311 43Q296 30 267 15T206 0Q143 0 105 45T66 160Q66 265 143 353T314 442Q361 442 401 394L404 398Q406 401 409 404T418 412T431 419T447 422Q461 422 470 413T480 394Q480 379 423 152T363 -80Q345 -134 286 -169T151 -205Q10 -205 10 -137Q10 -111 28 -91T74 -71Q89 -71 102 -80T116 -111Q116 -121 114 -130T107 -144T99 -154T92 -162L90 -164H91Q101 -167 151 -167Q189 -167 211 -155Q234 -144 254 -122T282 -75Q288 -56 298 -13Q311 35 311 43ZM384 328L380 339Q377 350 375 354T369 368T359 382T346 393T328 402T306 405Q262 405 221 352Q191 313 171 233T151 117Q151 38 213 38Q269 38 323 108L331 118L384 328Z"></path>
<path stroke-width="1" id="E1-MJMATHI-64" d="M366 683Q367 683 438 688T511 694Q523 694 523 686Q523 679 450 384T375 83T374 68Q374 26 402 26Q411 27 422 35Q443 55 463 131Q469 151 473 152Q475 153 483 153H487H491Q506 153 506 145Q506 140 503 129Q490 79 473 48T445 8T417 -8Q409 -10 393 -10Q359 -10 336 5T306 36L300 51Q299 52 296 50Q294 48 292 46Q233 -10 172 -10Q117 -10 75 30T33 157Q33 205 53 255T101 341Q148 398 195 420T280 442Q336 442 364 400Q369 394 369 396Q370 400 396 505T424 616Q424 629 417 632T378 637H357Q351 643 351 645T353 664Q358 683 366 683ZM352 326Q329 405 277 405Q242 405 210 374T160 293Q131 214 119 129Q119 126 119 118T118 106Q118 61 136 44T179 26Q233 26 290 98L298 109L352 326Z"></path>
<path stroke-width="1" id="E1-MJMATHI-69" d="M184 600Q184 624 203 642T247 661Q265 661 277 649T290 619Q290 596 270 577T226 557Q211 557 198 567T184 600ZM21 287Q21 295 30 318T54 369T98 420T158 442Q197 442 223 419T250 357Q250 340 236 301T196 196T154 83Q149 61 149 51Q149 26 166 26Q175 26 185 29T208 43T235 78T260 137Q263 149 265 151T282 153Q302 153 302 143Q302 135 293 112T268 61T223 11T161 -11Q129 -11 102 10T74 74Q74 91 79 106T122 220Q160 321 166 341T173 380Q173 404 156 404H154Q124 404 99 371T61 287Q60 286 59 284T58 281T56 279T53 278T49 278T41 278H27Q21 284 21 287Z"></path>
<path stroke-width="1" id="E1-MJMATHI-66" d="M118 -162Q120 -162 124 -164T135 -167T147 -168Q160 -168 171 -155T187 -126Q197 -99 221 27T267 267T289 382V385H242Q195 385 192 387Q188 390 188 397L195 425Q197 430 203 430T250 431Q298 431 298 432Q298 434 307 482T319 540Q356 705 465 705Q502 703 526 683T550 630Q550 594 529 578T487 561Q443 561 443 603Q443 622 454 636T478 657L487 662Q471 668 457 668Q445 668 434 658T419 630Q412 601 403 552T387 469T380 433Q380 431 435 431Q480 431 487 430T498 424Q499 420 496 407T491 391Q489 386 482 386T428 385H372L349 263Q301 15 282 -47Q255 -132 212 -173Q175 -205 139 -205Q107 -205 81 -186T55 -132Q55 -95 76 -78T118 -61Q162 -61 162 -103Q162 -122 151 -136T127 -157L118 -162Z"></path>
<path stroke-width="1" id="E1-MJMATHI-3B8" d="M35 200Q35 302 74 415T180 610T319 704Q320 704 327 704T339 705Q393 701 423 656Q462 596 462 495Q462 380 417 261T302 66T168 -10H161Q125 -10 99 10T60 63T41 130T35 200ZM383 566Q383 668 330 668Q294 668 260 623T204 521T170 421T157 371Q206 370 254 370L351 371Q352 372 359 404T375 484T383 566ZM113 132Q113 26 166 26Q181 26 198 36T239 74T287 161T335 307L340 324H145Q145 321 136 286T120 208T113 132Z"></path>
<path stroke-width="1" id="E1-MJMAIN-2260" d="M166 -215T159 -215T147 -212T141 -204T139 -197Q139 -190 144 -183L306 133H70Q56 140 56 153Q56 168 72 173H327L406 327H72Q56 332 56 347Q56 360 70 367H426Q597 702 602 707Q605 716 618 716Q625 716 630 712T636 703T638 696Q638 692 471 367H707Q722 359 722 347Q722 336 708 328L451 327L371 173H708Q722 163 722 153Q722 140 707 133H351Q175 -210 170 -212Q166 -215 159 -215Z"></path>
<path stroke-width="1" id="E1-MJMAIN-30" d="M96 585Q152 666 249 666Q297 666 345 640T423 548Q460 465 460 320Q460 165 417 83Q397 41 362 16T301 -15T250 -22Q224 -22 198 -16T137 16T82 83Q39 165 39 320Q39 494 96 585ZM321 597Q291 629 250 629Q208 629 178 597Q153 571 145 525T137 333Q137 175 145 125T181 46Q209 16 250 16Q290 16 318 46Q347 76 354 130T362 333Q362 478 354 524T321 597Z"></path>
</defs>
<g stroke="currentColor" fill="currentColor" stroke-width="0" transform="matrix(1 0 0 -1 0 0)">
<g transform="translate(6502,0)">
<g transform="translate(167,0)">
<g transform="translate(-11,0)">
 <use xlink:href="#E1-MJMAIN-3D" x="0" y="3158"></use>
 <use xlink:href="#E1-MJMAIN-3D" x="0" y="-1"></use>
 <use xlink:href="#E1-MJMAIN-2B" x="0" y="-3159"></use>
 <use xlink:href="#E1-MJMAIN-3D" x="0" y="-5439"></use>
</g>
<g transform="translate(768,0)">
<g transform="translate(0,5389)">
 <use xlink:href="#E1-MJMATHI-44" x="0" y="0"></use>
<g transform="translate(828,-155)">
 <use transform="scale(0.707)" xlink:href="#E1-MJMATHI-4A" x="0" y="0"></use>
 <use transform="scale(0.707)" xlink:href="#E1-MJMATHI-53" x="633" y="0"></use>
</g>
 <use xlink:href="#E1-MJMAIN-28" x="1832" y="0"></use>
 <use xlink:href="#E1-MJMATHI-50" x="2222" y="0"></use>
 <use xlink:href="#E1-MJMAIN-2225" x="3251" y="0"></use>
 <use xlink:href="#E1-MJMATHI-51" x="4029" y="0"></use>
 <use xlink:href="#E1-MJMAIN-29" x="4821" y="0"></use>
</g>
<g transform="translate(0,3158)">
<g transform="translate(120,0)">
<rect stroke="none" width="620" height="60" x="0" y="220"></rect>
<g transform="translate(60,819)">
<g></g>
 <use xlink:href="#E1-MJMAIN-31" x="0" y="0"></use>
</g>
<g transform="translate(60,-880)">
<g></g>
 <use xlink:href="#E1-MJMAIN-32" x="0" y="0"></use>
</g>
</g>
 <use xlink:href="#E1-MJMAIN-5B" x="860" y="0"></use>
<g transform="translate(1139,0)">
 <use xlink:href="#E1-MJMATHI-44" x="0" y="0"></use>
<g transform="translate(828,-150)">
 <use transform="scale(0.707)" xlink:href="#E1-MJMATHI-4B" x="0" y="0"></use>
 <use transform="scale(0.707)" xlink:href="#E1-MJMATHI-4C" x="889" y="0"></use>
</g>
</g>
 <use xlink:href="#E1-MJMAIN-28" x="3178" y="0"></use>
 <use xlink:href="#E1-MJMATHI-50" x="3567" y="0"></use>
 <use xlink:href="#E1-MJMAIN-2225" x="4597" y="0"></use>
<g transform="translate(5097,0)">
<g transform="translate(397,0)">
<rect stroke="none" width="2885" height="60" x="0" y="220"></rect>
<g transform="translate(60,819)">
<g></g>
 <use xlink:href="#E1-MJMATHI-50" x="0" y="0"></use>
 <use xlink:href="#E1-MJMAIN-2B" x="973" y="0"></use>
 <use xlink:href="#E1-MJMATHI-51" x="1974" y="0"></use>
</g>
<g transform="translate(1192,-880)">
<g></g>
 <use xlink:href="#E1-MJMAIN-32" x="0" y="0"></use>
</g>
</g>
</g>
 <use xlink:href="#E1-MJMAIN-29" x="8501" y="0"></use>
 <use xlink:href="#E1-MJMAIN-2B" x="9113" y="0"></use>
<g transform="translate(10113,0)">
 <use xlink:href="#E1-MJMATHI-44" x="0" y="0"></use>
<g transform="translate(828,-150)">
 <use transform="scale(0.707)" xlink:href="#E1-MJMATHI-4B" x="0" y="0"></use>
 <use transform="scale(0.707)" xlink:href="#E1-MJMATHI-4C" x="889" y="0"></use>
</g>
</g>
 <use xlink:href="#E1-MJMAIN-28" x="12153" y="0"></use>
 <use xlink:href="#E1-MJMATHI-51" x="12542" y="0"></use>
 <use xlink:href="#E1-MJMAIN-2225" x="13611" y="0"></use>
<g transform="translate(14112,0)">
<g transform="translate(397,0)">
<rect stroke="none" width="2885" height="60" x="0" y="220"></rect>
<g transform="translate(60,819)">
<g></g>
 <use xlink:href="#E1-MJMATHI-50" x="0" y="0"></use>
 <use xlink:href="#E1-MJMAIN-2B" x="973" y="0"></use>
 <use xlink:href="#E1-MJMATHI-51" x="1974" y="0"></use>
</g>
<g transform="translate(1192,-880)">
<g></g>
 <use xlink:href="#E1-MJMAIN-32" x="0" y="0"></use>
</g>
</g>
</g>
 <use xlink:href="#E1-MJMAIN-29" x="17516" y="0"></use>
 <use xlink:href="#E1-MJMAIN-5D" x="17905" y="0"></use>
</g>
<g transform="translate(120,0)">
<rect stroke="none" width="620" height="60" x="0" y="220"></rect>
<g transform="translate(60,819)">
<g></g>
 <use xlink:href="#E1-MJMAIN-31" x="0" y="0"></use>
</g>
<g transform="translate(60,-880)">
<g></g>
 <use xlink:href="#E1-MJMAIN-32" x="0" y="0"></use>
</g>
</g>
 <use xlink:href="#E1-MJSZ2-222B" x="1027" y="0"></use>
 <use xlink:href="#E1-MJMATHI-50" x="2138" y="0"></use>
 <use xlink:href="#E1-MJMAIN-28" x="2889" y="0"></use>
 <use xlink:href="#E1-MJMATHI-78" x="3279" y="0"></use>
 <use xlink:href="#E1-MJMAIN-2C" x="3851" y="0"></use>
 <use xlink:href="#E1-MJMATHI-79" x="4297" y="0"></use>
 <use xlink:href="#E1-MJMAIN-29" x="4794" y="0"></use>
 <use xlink:href="#E1-MJMATHI-6C" x="5184" y="0"></use>
 <use xlink:href="#E1-MJMATHI-6F" x="5482" y="0"></use>
 <use xlink:href="#E1-MJMATHI-67" x="5968" y="0"></use>
 <use xlink:href="#E1-MJMAIN-5B" x="6448" y="0"></use>
<g transform="translate(6727,0)">
<g transform="translate(120,0)">
<rect stroke="none" width="7474" height="60" x="0" y="220"></rect>
<g transform="translate(1964,819)">
<g></g>
 <use xlink:href="#E1-MJMAIN-32" x="0" y="0"></use>
 <use xlink:href="#E1-MJMATHI-50" x="500" y="0"></use>
 <use xlink:href="#E1-MJMAIN-28" x="1252" y="0"></use>
 <use xlink:href="#E1-MJMATHI-78" x="1641" y="0"></use>
 <use xlink:href="#E1-MJMAIN-2C" x="2214" y="0"></use>
 <use xlink:href="#E1-MJMATHI-79" x="2659" y="0"></use>
 <use xlink:href="#E1-MJMAIN-29" x="3156" y="0"></use>
</g>
<g transform="translate(60,-880)">
<g></g>
 <use xlink:href="#E1-MJMATHI-50" x="0" y="0"></use>
 <use xlink:href="#E1-MJMAIN-28" x="751" y="0"></use>
 <use xlink:href="#E1-MJMATHI-78" x="1141" y="0"></use>
 <use xlink:href="#E1-MJMAIN-2C" x="1713" y="0"></use>
 <use xlink:href="#E1-MJMATHI-79" x="2158" y="0"></use>
 <use xlink:href="#E1-MJMAIN-29" x="2656" y="0"></use>
 <use xlink:href="#E1-MJMAIN-2B" x="3267" y="0"></use>
 <use xlink:href="#E1-MJMATHI-51" x="4268" y="0"></use>
 <use xlink:href="#E1-MJMAIN-28" x="5060" y="0"></use>
 <use xlink:href="#E1-MJMATHI-78" x="5449" y="0"></use>
 <use xlink:href="#E1-MJMAIN-2C" x="6022" y="0"></use>
 <use xlink:href="#E1-MJMATHI-79" x="6467" y="0"></use>
 <use xlink:href="#E1-MJMAIN-29" x="6964" y="0"></use>
</g>
</g>
</g>
 <use xlink:href="#E1-MJMAIN-5D" x="14441" y="0"></use>
 <use xlink:href="#E1-MJMATHI-64" x="14719" y="0"></use>
 <use xlink:href="#E1-MJMATHI-78" x="15243" y="0"></use>
 <use xlink:href="#E1-MJMATHI-64" x="15815" y="0"></use>
 <use xlink:href="#E1-MJMATHI-79" x="16339" y="0"></use>
<g transform="translate(0,-3159)">
<g transform="translate(120,0)">
<rect stroke="none" width="620" height="60" x="0" y="220"></rect>
<g transform="translate(60,819)">
<g></g>
 <use xlink:href="#E1-MJMAIN-31" x="0" y="0"></use>
</g>
<g transform="translate(60,-880)">
<g></g>
 <use xlink:href="#E1-MJMAIN-32" x="0" y="0"></use>
</g>
</g>
 <use xlink:href="#E1-MJSZ2-222B" x="1027" y="0"></use>
 <use xlink:href="#E1-MJMATHI-51" x="2138" y="0"></use>
 <use xlink:href="#E1-MJMAIN-28" x="2929" y="0"></use>
 <use xlink:href="#E1-MJMATHI-78" x="3319" y="0"></use>
 <use xlink:href="#E1-MJMAIN-2C" x="3891" y="0"></use>
 <use xlink:href="#E1-MJMATHI-79" x="4337" y="0"></use>
 <use xlink:href="#E1-MJMAIN-29" x="4834" y="0"></use>
 <use xlink:href="#E1-MJMATHI-6C" x="5224" y="0"></use>
 <use xlink:href="#E1-MJMATHI-6F" x="5522" y="0"></use>
 <use xlink:href="#E1-MJMATHI-67" x="6008" y="0"></use>
 <use xlink:href="#E1-MJMAIN-5B" x="6488" y="0"></use>
<g transform="translate(6767,0)">
<g transform="translate(120,0)">
<rect stroke="none" width="7474" height="60" x="0" y="220"></rect>
<g transform="translate(1944,819)">
<g></g>
 <use xlink:href="#E1-MJMAIN-32" x="0" y="0"></use>
 <use xlink:href="#E1-MJMATHI-51" x="500" y="0"></use>
 <use xlink:href="#E1-MJMAIN-28" x="1292" y="0"></use>
 <use xlink:href="#E1-MJMATHI-78" x="1681" y="0"></use>
 <use xlink:href="#E1-MJMAIN-2C" x="2254" y="0"></use>
 <use xlink:href="#E1-MJMATHI-79" x="2699" y="0"></use>
 <use xlink:href="#E1-MJMAIN-29" x="3196" y="0"></use>
</g>
<g transform="translate(60,-880)">
<g></g>
 <use xlink:href="#E1-MJMATHI-50" x="0" y="0"></use>
 <use xlink:href="#E1-MJMAIN-28" x="751" y="0"></use>
 <use xlink:href="#E1-MJMATHI-78" x="1141" y="0"></use>
 <use xlink:href="#E1-MJMAIN-2C" x="1713" y="0"></use>
 <use xlink:href="#E1-MJMATHI-79" x="2158" y="0"></use>
 <use xlink:href="#E1-MJMAIN-29" x="2656" y="0"></use>
 <use xlink:href="#E1-MJMAIN-2B" x="3267" y="0"></use>
 <use xlink:href="#E1-MJMATHI-51" x="4268" y="0"></use>
 <use xlink:href="#E1-MJMAIN-28" x="5060" y="0"></use>
 <use xlink:href="#E1-MJMATHI-78" x="5449" y="0"></use>
 <use xlink:href="#E1-MJMAIN-2C" x="6022" y="0"></use>
 <use xlink:href="#E1-MJMATHI-79" x="6467" y="0"></use>
 <use xlink:href="#E1-MJMAIN-29" x="6964" y="0"></use>
</g>
</g>
</g>
 <use xlink:href="#E1-MJMAIN-5D" x="14481" y="0"></use>
 <use xlink:href="#E1-MJMATHI-64" x="14759" y="0"></use>
 <use xlink:href="#E1-MJMATHI-78" x="15283" y="0"></use>
 <use xlink:href="#E1-MJMATHI-64" x="15855" y="0"></use>
 <use xlink:href="#E1-MJMATHI-79" x="16379" y="0"></use>
</g>
<g transform="translate(0,-5439)">
 <use xlink:href="#E1-MJMATHI-6C" x="0" y="0"></use>
 <use xlink:href="#E1-MJMATHI-67" x="298" y="0"></use>
 <use xlink:href="#E1-MJMAIN-32" x="779" y="0"></use>
 <use xlink:href="#E1-MJMAIN-28" x="1779" y="0"></use>
 <use xlink:href="#E1-MJMATHI-69" x="2169" y="0"></use>
 <use xlink:href="#E1-MJMATHI-66" x="2514" y="0"></use>
 <use xlink:href="#E1-MJMATHI-3B8" x="3315" y="0"></use>
 <use xlink:href="#E1-MJMAIN-2260" x="4062" y="0"></use>
 <use xlink:href="#E1-MJMAIN-30" x="5118" y="0"></use>
 <use xlink:href="#E1-MJMAIN-29" x="5619" y="0"></use>
</g>
</g>
</g>
</g>
</g>
</svg>