<svg xmlns:xlink="http://www.w3.org/1999/xlink" width="75ex" height="8.843ex" style="font-size: 15px; vertical-align: -4.338ex; max-width: 450;" viewBox="0 -1939.5 32291.5 3807.2" role="img" focusable="false" xmlns="http://www.w3.org/2000/svg">
<defs>
<path stroke-width="1" id="E1-MJMAIN-28" d="M94 250Q94 319 104 381T127 488T164 576T202 643T244 695T277 729T302 750H315H319Q333 750 333 741Q333 738 316 720T275 667T226 581T184 443T167 250T184 58T225 -81T274 -167T316 -220T333 -241Q333 -250 318 -250H315H302L274 -226Q180 -141 137 -14T94 250Z"></path>
<path stroke-width="1" id="E1-MJMATHI-3B8" d="M35 200Q35 302 74 415T180 610T319 704Q320 704 327 704T339 705Q393 701 423 656Q462 596 462 495Q462 380 417 261T302 66T168 -10H161Q125 -10 99 10T60 63T41 130T35 200ZM383 566Q383 668 330 668Q294 668 260 623T204 521T170 421T157 371Q206 370 254 370L351 371Q352 372 359 404T375 484T383 566ZM113 132Q113 26 166 26Q181 26 198 36T239 74T287 161T335 307L340 324H145Q145 321 136 286T120 208T113 132Z"></path>
<path stroke-width="1" id="E1-MJMATHI-47" d="M50 252Q50 367 117 473T286 641T490 704Q580 704 633 653Q642 643 648 636T656 626L657 623Q660 623 684 649Q691 655 699 663T715 679T725 690L740 705H746Q760 705 760 698Q760 694 728 561Q692 422 692 421Q690 416 687 415T669 413H653Q647 419 647 422Q647 423 648 429T650 449T651 481Q651 552 619 605T510 659Q492 659 471 656T418 643T357 615T294 567T236 496T189 394T158 260Q156 242 156 221Q156 173 170 136T206 79T256 45T308 28T353 24Q407 24 452 47T514 106Q517 114 529 161T541 214Q541 222 528 224T468 227H431Q425 233 425 235T427 254Q431 267 437 273H454Q494 271 594 271Q634 271 659 271T695 272T707 272Q721 272 721 263Q721 261 719 249Q714 230 709 228Q706 227 694 227Q674 227 653 224Q646 221 643 215T629 164Q620 131 614 108Q589 6 586 3Q584 1 581 1Q571 1 553 21T530 52Q530 53 528 52T522 47Q448 -22 322 -22Q201 -22 126 55T50 252Z"></path>
<path stroke-width="1" id="E1-MJMAIN-AF" d="M69 544V590H430V544H69Z"></path>
<path stroke-width="1" id="E1-MJMATHI-44" d="M287 628Q287 635 230 637Q207 637 200 638T193 647Q193 655 197 667T204 682Q206 683 403 683Q570 682 590 682T630 676Q702 659 752 597T803 431Q803 275 696 151T444 3L430 1L236 0H125H72Q48 0 41 2T33 11Q33 13 36 25Q40 41 44 43T67 46Q94 46 127 49Q141 52 146 61Q149 65 218 339T287 628ZM703 469Q703 507 692 537T666 584T629 613T590 629T555 636Q553 636 541 636T512 636T479 637H436Q392 637 386 627Q384 623 313 339T242 52Q242 48 253 48T330 47Q335 47 349 47T373 46Q499 46 581 128Q617 164 640 212T683 339T703 469Z"></path>
<path stroke-width="1" id="E1-MJMAIN-29" d="M60 749L64 750Q69 750 74 750H86L114 726Q208 641 251 514T294 250Q294 182 284 119T261 12T224 -76T186 -143T145 -194T113 -227T90 -246Q87 -249 86 -250H74Q66 -250 63 -250T58 -247T55 -238Q56 -237 66 -225Q221 -64 221 250T66 725Q56 737 55 738Q55 746 60 749Z"></path>
<path stroke-width="1" id="E1-MJSZ4-28" d="M758 -1237T758 -1240T752 -1249H736Q718 -1249 717 -1248Q711 -1245 672 -1199Q237 -706 237 251T672 1700Q697 1730 716 1749Q718 1750 735 1750H752Q758 1744 758 1741Q758 1737 740 1713T689 1644T619 1537T540 1380T463 1176Q348 802 348 251Q348 -242 441 -599T744 -1218Q758 -1237 758 -1240Z"></path>
<path stroke-width="1" id="E1-MJSZ4-29" d="M33 1741Q33 1750 51 1750H60H65Q73 1750 81 1743T119 1700Q554 1207 554 251Q554 -707 119 -1199Q76 -1250 66 -1250Q65 -1250 62 -1250T56 -1249Q55 -1249 53 -1249T49 -1250Q33 -1250 33 -1239Q33 -1236 50 -1214T98 -1150T163 -1052T238 -910T311 -727Q443 -335 443 251Q443 402 436 532T405 831T339 1142T224 1438T50 1716Q33 1737 33 1741Z"></path>
<path stroke-width="1" id="E1-MJMAIN-3A" d="M78 370Q78 394 95 412T138 430Q162 430 180 414T199 371Q199 346 182 328T139 310T96 327T78 370ZM78 60Q78 84 95 102T138 120Q162 120 180 104T199 61Q199 36 182 18T139 0T96 17T78 60Z"></path>
<path stroke-width="1" id="E1-MJMAIN-3D" d="M56 347Q56 360 70 367H707Q722 359 722 347Q722 336 708 328L390 327H72Q56 332 56 347ZM56 153Q56 168 72 173H708Q722 163 722 153Q722 140 707 133H70Q56 140 56 153Z"></path>
<path stroke-width="1" id="E1-MJMAIN-2B" d="M56 237T56 250T70 270H369V420L370 570Q380 583 389 583Q402 583 409 568V270H707Q722 262 722 250T707 230H409V-68Q401 -82 391 -82H389H387Q375 -82 369 -68V230H70Q56 237 56 250Z"></path>
<path stroke-width="1" id="E1-MJMATHI-68" d="M137 683Q138 683 209 688T282 694Q294 694 294 685Q294 674 258 534Q220 386 220 383Q220 381 227 388Q288 442 357 442Q411 442 444 415T478 336Q478 285 440 178T402 50Q403 36 407 31T422 26Q450 26 474 56T513 138Q516 149 519 151T535 153Q555 153 555 145Q555 144 551 130Q535 71 500 33Q466 -10 419 -10H414Q367 -10 346 17T325 74Q325 90 361 192T398 345Q398 404 354 404H349Q266 404 205 306L198 293L164 158Q132 28 127 16Q114 -11 83 -11Q69 -11 59 -2T48 16Q48 30 121 320L195 616Q195 629 188 632T149 637H128Q122 643 122 645T124 664Q129 683 137 683Z"></path>
<path stroke-width="1" id="E1-MJMAIN-2207" d="M46 676Q46 679 51 683H781Q786 679 786 676Q786 674 617 326T444 -26Q439 -33 416 -33T388 -26Q385 -22 216 326T46 676ZM697 596Q697 597 445 597T193 596Q195 591 319 336T445 80L697 596Z"></path>
<path stroke-width="1" id="E1-MJMATHI-66" d="M118 -162Q120 -162 124 -164T135 -167T147 -168Q160 -168 171 -155T187 -126Q197 -99 221 27T267 267T289 382V385H242Q195 385 192 387Q188 390 188 397L195 425Q197 430 203 430T250 431Q298 431 298 432Q298 434 307 482T319 540Q356 705 465 705Q502 703 526 683T550 630Q550 594 529 578T487 561Q443 561 443 603Q443 622 454 636T478 657L487 662Q471 668 457 668Q445 668 434 658T419 630Q412 601 403 552T387 469T380 433Q380 431 435 431Q480 431 487 430T498 424Q499 420 496 407T491 391Q489 386 482 386T428 385H372L349 263Q301 15 282 -47Q255 -132 212 -173Q175 -205 139 -205Q107 -205 81 -186T55 -132Q55 -95 76 -78T118 -61Q162 -61 162 -103Q162 -122 151 -136T127 -157L118 -162Z"></path>
<path stroke-width="1" id="E1-MJMAIN-2C" d="M78 35T78 60T94 103T137 121Q165 121 187 96T210 8Q210 -27 201 -60T180 -117T154 -158T130 -185T117 -194Q113 -194 104 -185T95 -172Q95 -168 106 -156T131 -126T157 -76T173 -3V9L172 8Q170 7 167 6T161 3T152 1T140 0Q113 0 96 17Z"></path>
<path stroke-width="1" id="E1-MJMATHI-67" d="M311 43Q296 30 267 15T206 0Q143 0 105 45T66 160Q66 265 143 353T314 442Q361 442 401 394L404 398Q406 401 409 404T418 412T431 419T447 422Q461 422 470 413T480 394Q480 379 423 152T363 -80Q345 -134 286 -169T151 -205Q10 -205 10 -137Q10 -111 28 -91T74 -71Q89 -71 102 -80T116 -111Q116 -121 114 -130T107 -144T99 -154T92 -162L90 -164H91Q101 -167 151 -167Q189 -167 211 -155Q234 -144 254 -122T282 -75Q288 -56 298 -13Q311 35 311 43ZM384 328L380 339Q377 350 375 354T369 368T359 382T346 393T328 402T306 405Q262 405 221 352Q191 313 171 233T151 117Q151 38 213 38Q269 38 323 108L331 118L384 328Z"></path>
</defs>
<g stroke="currentColor" fill="currentColor" stroke-width="0" transform="matrix(1 0 0 -1 0 0)">
<g transform="translate(7317,0)">
 <use xlink:href="#E1-MJSZ4-28"></use>
<g transform="translate(959,0)">
<g transform="translate(-11,0)">
<g transform="translate(14,650)">
<g transform="translate(24,0)">
 <use xlink:href="#E1-MJMATHI-3B8" x="0" y="0"></use>
 <use transform="scale(0.707)" xlink:href="#E1-MJMATHI-47" x="663" y="-219"></use>
</g>
<g transform="translate(0,522)">
 <use transform="scale(0.707)" xlink:href="#E1-MJMAIN-AF" x="-70" y="0"></use>
<g transform="translate(136.84440417631043,0) scale(2.4096803982589408,1)">
 <use transform="scale(0.707)" xlink:href="#E1-MJMAIN-AF"></use>
</g>
 <use transform="scale(0.707)" xlink:href="#E1-MJMAIN-AF" x="1161" y="0"></use>
</g>
</g>
<g transform="translate(0,-990)">
<g transform="translate(24,0)">
 <use xlink:href="#E1-MJMATHI-3B8" x="0" y="0"></use>
 <use transform="scale(0.707)" xlink:href="#E1-MJMATHI-44" x="663" y="-213"></use>
</g>
<g transform="translate(0,522)">
 <use transform="scale(0.707)" xlink:href="#E1-MJMAIN-AF" x="-70" y="0"></use>
<g transform="translate(131.12682884588514,0) scale(2.5260238885636497,1)">
 <use transform="scale(0.707)" xlink:href="#E1-MJMAIN-AF"></use>
</g>
 <use transform="scale(0.707)" xlink:href="#E1-MJMAIN-AF" x="1203" y="0"></use>
</g>
</g>
</g>
</g>
 <use xlink:href="#E1-MJSZ4-29" x="2320" y="0"></use>
<g transform="translate(3391,0)">
 <use xlink:href="#E1-MJMAIN-3A"></use>
 <use xlink:href="#E1-MJMAIN-3D" x="278" y="0"></use>
</g>
<g transform="translate(4725,0)">
 <use xlink:href="#E1-MJSZ4-28"></use>
<g transform="translate(959,0)">
<g transform="translate(-11,0)">
<g transform="translate(14,650)">
<g transform="translate(24,0)">
 <use xlink:href="#E1-MJMATHI-3B8" x="0" y="0"></use>
 <use transform="scale(0.707)" xlink:href="#E1-MJMATHI-47" x="663" y="-219"></use>
</g>
<g transform="translate(0,522)">
 <use transform="scale(0.707)" xlink:href="#E1-MJMAIN-AF" x="-70" y="0"></use>
<g transform="translate(136.84440417631043,0) scale(2.4096803982589408,1)">
 <use transform="scale(0.707)" xlink:href="#E1-MJMAIN-AF"></use>
</g>
 <use transform="scale(0.707)" xlink:href="#E1-MJMAIN-AF" x="1161" y="0"></use>
</g>
</g>
<g transform="translate(0,-990)">
<g transform="translate(24,0)">
 <use xlink:href="#E1-MJMATHI-3B8" x="0" y="0"></use>
 <use transform="scale(0.707)" xlink:href="#E1-MJMATHI-44" x="663" y="-213"></use>
</g>
<g transform="translate(0,522)">
 <use transform="scale(0.707)" xlink:href="#E1-MJMAIN-AF" x="-70" y="0"></use>
<g transform="translate(131.12682884588514,0) scale(2.5260238885636497,1)">
 <use transform="scale(0.707)" xlink:href="#E1-MJMAIN-AF"></use>
</g>
 <use transform="scale(0.707)" xlink:href="#E1-MJMAIN-AF" x="1203" y="0"></use>
</g>
</g>
</g>
</g>
 <use xlink:href="#E1-MJSZ4-29" x="2320" y="0"></use>
</g>
 <use xlink:href="#E1-MJMAIN-2B" x="8061" y="0"></use>
 <use xlink:href="#E1-MJMATHI-68" x="9062" y="0"></use>
<g transform="translate(9805,0)">
 <use xlink:href="#E1-MJSZ4-28"></use>
<g transform="translate(959,0)">
<g transform="translate(-11,0)">
<g transform="translate(0,767)">
 <use xlink:href="#E1-MJMAIN-2207" x="0" y="0"></use>
<g transform="translate(833,-155)">
 <use transform="scale(0.707)" xlink:href="#E1-MJMATHI-3B8" x="0" y="0"></use>
 <use transform="scale(0.574)" xlink:href="#E1-MJMATHI-47" x="578" y="-282"></use>
</g>
 <use xlink:href="#E1-MJMATHI-66" x="1787" y="0"></use>
 <use xlink:href="#E1-MJMAIN-28" x="2338" y="0"></use>
<g transform="translate(2727,0)">
<g transform="translate(24,0)">
 <use xlink:href="#E1-MJMATHI-3B8" x="0" y="0"></use>
 <use transform="scale(0.707)" xlink:href="#E1-MJMATHI-47" x="663" y="-219"></use>
</g>
<g transform="translate(0,522)">
 <use transform="scale(0.707)" xlink:href="#E1-MJMAIN-AF" x="-70" y="0"></use>
<g transform="translate(136.84440417631043,0) scale(2.4096803982589408,1)">
 <use transform="scale(0.707)" xlink:href="#E1-MJMAIN-AF"></use>
</g>
 <use transform="scale(0.707)" xlink:href="#E1-MJMAIN-AF" x="1161" y="0"></use>
</g>
</g>
 <use xlink:href="#E1-MJMAIN-2C" x="3902" y="0"></use>
<g transform="translate(4348,0)">
<g transform="translate(24,0)">
 <use xlink:href="#E1-MJMATHI-3B8" x="0" y="0"></use>
 <use transform="scale(0.707)" xlink:href="#E1-MJMATHI-44" x="663" y="-213"></use>
</g>
<g transform="translate(0,522)">
 <use transform="scale(0.707)" xlink:href="#E1-MJMAIN-AF" x="-70" y="0"></use>
<g transform="translate(131.12682884588514,0) scale(2.5260238885636497,1)">
 <use transform="scale(0.707)" xlink:href="#E1-MJMAIN-AF"></use>
</g>
 <use transform="scale(0.707)" xlink:href="#E1-MJMAIN-AF" x="1203" y="0"></use>
</g>
</g>
 <use xlink:href="#E1-MJMAIN-29" x="5552" y="0"></use>
</g>
<g transform="translate(22,-1003)">
 <use xlink:href="#E1-MJMAIN-2207" x="0" y="0"></use>
<g transform="translate(833,-155)">
 <use transform="scale(0.707)" xlink:href="#E1-MJMATHI-3B8" x="0" y="0"></use>
 <use transform="scale(0.574)" xlink:href="#E1-MJMATHI-44" x="578" y="-260"></use>
</g>
 <use xlink:href="#E1-MJMATHI-67" x="1811" y="0"></use>
 <use xlink:href="#E1-MJMAIN-28" x="2292" y="0"></use>
<g transform="translate(2681,0)">
<g transform="translate(24,0)">
 <use xlink:href="#E1-MJMATHI-3B8" x="0" y="0"></use>
 <use transform="scale(0.707)" xlink:href="#E1-MJMATHI-47" x="663" y="-219"></use>
</g>
<g transform="translate(0,522)">
 <use transform="scale(0.707)" xlink:href="#E1-MJMAIN-AF" x="-70" y="0"></use>
<g transform="translate(136.84440417631043,0) scale(2.4096803982589408,1)">
 <use transform="scale(0.707)" xlink:href="#E1-MJMAIN-AF"></use>
</g>
 <use transform="scale(0.707)" xlink:href="#E1-MJMAIN-AF" x="1161" y="0"></use>
</g>
</g>
 <use xlink:href="#E1-MJMAIN-2C" x="3856" y="0"></use>
<g transform="translate(4302,0)">
<g transform="translate(24,0)">
 <use xlink:href="#E1-MJMATHI-3B8" x="0" y="0"></use>
 <use transform="scale(0.707)" xlink:href="#E1-MJMATHI-44" x="663" y="-213"></use>
</g>
<g transform="translate(0,522)">
 <use transform="scale(0.707)" xlink:href="#E1-MJMAIN-AF" x="-70" y="0"></use>
<g transform="translate(131.12682884588514,0) scale(2.5260238885636497,1)">
 <use transform="scale(0.707)" xlink:href="#E1-MJMAIN-AF"></use>
</g>
 <use transform="scale(0.707)" xlink:href="#E1-MJMAIN-AF" x="1203" y="0"></use>
</g>
</g>
 <use xlink:href="#E1-MJMAIN-29" x="5506" y="0"></use>
</g>
</g>
</g>
 <use xlink:href="#E1-MJSZ4-29" x="7058" y="0"></use>
</g>
</g>
</g>
</svg>