<svg xmlns:xlink="http://www.w3.org/1999/xlink" width="75.339ex" height="8.509ex" style="font-size: 15px; vertical-align: -4.171ex;" viewBox="0 -1867.7 32437.7 3663.7" role="img" focusable="false" xmlns="http://www.w3.org/2000/svg">
<defs>
<path stroke-width="1" id="E1-MJMAIN-28" d="M94 250Q94 319 104 381T127 488T164 576T202 643T244 695T277 729T302 750H315H319Q333 750 333 741Q333 738 316 720T275 667T226 581T184 443T167 250T184 58T225 -81T274 -167T316 -220T333 -241Q333 -250 318 -250H315H302L274 -226Q180 -141 137 -14T94 250Z"></path>
<path stroke-width="1" id="E1-MJMATHI-3C6" d="M92 210Q92 176 106 149T142 108T185 85T220 72L235 70L237 71L250 112Q268 170 283 211T322 299T370 375T429 423T502 442Q547 442 582 410T618 302Q618 224 575 152T457 35T299 -10Q273 -10 273 -12L266 -48Q260 -83 252 -125T241 -179Q236 -203 215 -212Q204 -218 190 -218Q159 -215 159 -185Q159 -175 214 -2L209 0Q204 2 195 5T173 14T147 28T120 46T94 71T71 103T56 142T50 190Q50 238 76 311T149 431H162Q183 431 183 423Q183 417 175 409Q134 361 114 300T92 210ZM574 278Q574 320 550 344T486 369Q437 369 394 329T323 218Q309 184 295 109L286 64Q304 62 306 62Q423 62 498 131T574 278Z"></path>
<path stroke-width="1" id="E1-MJMAIN-2D9" d="M190 609Q190 637 208 653T252 669Q275 667 292 652T309 609Q309 579 292 564T250 549Q225 549 208 564T190 609Z"></path>
<path stroke-width="1" id="E1-MJMATHI-3B8" d="M35 200Q35 302 74 415T180 610T319 704Q320 704 327 704T339 705Q393 701 423 656Q462 596 462 495Q462 380 417 261T302 66T168 -10H161Q125 -10 99 10T60 63T41 130T35 200ZM383 566Q383 668 330 668Q294 668 260 623T204 521T170 421T157 371Q206 370 254 370L351 371Q352 372 359 404T375 484T383 566ZM113 132Q113 26 166 26Q181 26 198 36T239 74T287 161T335 307L340 324H145Q145 321 136 286T120 208T113 132Z"></path>
<path stroke-width="1" id="E1-MJMAIN-29" d="M60 749L64 750Q69 750 74 750H86L114 726Q208 641 251 514T294 250Q294 182 284 119T261 12T224 -76T186 -143T145 -194T113 -227T90 -246Q87 -249 86 -250H74Q66 -250 63 -250T58 -247T55 -238Q56 -237 66 -225Q221 -64 221 250T66 725Q56 737 55 738Q55 746 60 749Z"></path>
<path stroke-width="1" id="E1-MJSZ3-28" d="M701 -940Q701 -943 695 -949H664Q662 -947 636 -922T591 -879T537 -818T475 -737T412 -636T350 -511T295 -362T250 -186T221 17T209 251Q209 962 573 1361Q596 1386 616 1405T649 1437T664 1450H695Q701 1444 701 1441Q701 1436 681 1415T629 1356T557 1261T476 1118T400 927T340 675T308 359Q306 321 306 250Q306 -139 400 -430T690 -924Q701 -936 701 -940Z"></path>
<path stroke-width="1" id="E1-MJSZ3-29" d="M34 1438Q34 1446 37 1448T50 1450H56H71Q73 1448 99 1423T144 1380T198 1319T260 1238T323 1137T385 1013T440 864T485 688T514 485T526 251Q526 134 519 53Q472 -519 162 -860Q139 -885 119 -904T86 -936T71 -949H56Q43 -949 39 -947T34 -937Q88 -883 140 -813Q428 -430 428 251Q428 453 402 628T338 922T245 1146T145 1309T46 1425Q44 1427 42 1429T39 1433T36 1436L34 1438Z"></path>
<path stroke-width="1" id="E1-MJMAIN-3D" d="M56 347Q56 360 70 367H707Q722 359 722 347Q722 336 708 328L390 327H72Q56 332 56 347ZM56 153Q56 168 72 173H708Q722 163 722 153Q722 140 707 133H70Q56 140 56 153Z"></path>
<path stroke-width="1" id="E1-MJMATHI-3C3" d="M184 -11Q116 -11 74 34T31 147Q31 247 104 333T274 430Q275 431 414 431H552Q553 430 555 429T559 427T562 425T565 422T567 420T569 416T570 412T571 407T572 401Q572 357 507 357Q500 357 490 357T476 358H416L421 348Q439 310 439 263Q439 153 359 71T184 -11ZM361 278Q361 358 276 358Q152 358 115 184Q114 180 114 178Q106 141 106 117Q106 67 131 47T188 26Q242 26 287 73Q316 103 334 153T356 233T361 278Z"></path>
<path stroke-width="1" id="E1-MJMAIN-2212" d="M84 237T84 250T98 270H679Q694 262 694 250T679 230H98Q84 237 84 250Z"></path>
<path stroke-width="1" id="E1-MJMATHI-3B3" d="M31 249Q11 249 11 258Q11 275 26 304T66 365T129 418T206 441Q233 441 239 440Q287 429 318 386T371 255Q385 195 385 170Q385 166 386 166L398 193Q418 244 443 300T486 391T508 430Q510 431 524 431H537Q543 425 543 422Q543 418 522 378T463 251T391 71Q385 55 378 6T357 -100Q341 -165 330 -190T303 -216Q286 -216 286 -188Q286 -138 340 32L346 51L347 69Q348 79 348 100Q348 257 291 317Q251 355 196 355Q148 355 108 329T51 260Q49 251 47 251Q45 249 31 249Z"></path>
<path stroke-width="1" id="E1-MJMAIN-32" d="M109 429Q82 429 66 447T50 491Q50 562 103 614T235 666Q326 666 387 610T449 465Q449 422 429 383T381 315T301 241Q265 210 201 149L142 93L218 92Q375 92 385 97Q392 99 409 186V189H449V186Q448 183 436 95T421 3V0H50V19V31Q50 38 56 46T86 81Q115 113 136 137Q145 147 170 174T204 211T233 244T261 278T284 308T305 340T320 369T333 401T340 431T343 464Q343 527 309 573T212 619Q179 619 154 602T119 569T109 550Q109 549 114 549Q132 549 151 535T170 489Q170 464 154 447T109 429Z"></path>
<path stroke-width="1" id="E1-MJMAIN-7B" d="M434 -231Q434 -244 428 -250H410Q281 -250 230 -184Q225 -177 222 -172T217 -161T213 -148T211 -133T210 -111T209 -84T209 -47T209 0Q209 21 209 53Q208 142 204 153Q203 154 203 155Q189 191 153 211T82 231Q71 231 68 234T65 250T68 266T82 269Q116 269 152 289T203 345Q208 356 208 377T209 529V579Q209 634 215 656T244 698Q270 724 324 740Q361 748 377 749Q379 749 390 749T408 750H428Q434 744 434 732Q434 719 431 716Q429 713 415 713Q362 710 332 689T296 647Q291 634 291 499V417Q291 370 288 353T271 314Q240 271 184 255L170 250L184 245Q202 239 220 230T262 196T290 137Q291 131 291 1Q291 -134 296 -147Q306 -174 339 -192T415 -213Q429 -213 431 -216Q434 -219 434 -231Z"></path>
<path stroke-width="1" id="E1-MJMAIN-2B" d="M56 237T56 250T70 270H369V420L370 570Q380 583 389 583Q402 583 409 568V270H707Q722 262 722 250T707 230H409V-68Q401 -82 391 -82H389H387Q375 -82 369 -68V230H70Q56 237 56 250Z"></path>
<path stroke-width="1" id="E1-MJMAIN-33" d="M127 463Q100 463 85 480T69 524Q69 579 117 622T233 665Q268 665 277 664Q351 652 390 611T430 522Q430 470 396 421T302 350L299 348Q299 347 308 345T337 336T375 315Q457 262 457 175Q457 96 395 37T238 -22Q158 -22 100 21T42 130Q42 158 60 175T105 193Q133 193 151 175T169 130Q169 119 166 110T159 94T148 82T136 74T126 70T118 67L114 66Q165 21 238 21Q293 21 321 74Q338 107 338 175V195Q338 290 274 322Q259 328 213 329L171 330L168 332Q166 335 166 348Q166 366 174 366Q202 366 232 371Q266 376 294 413T322 525V533Q322 590 287 612Q265 626 240 626Q208 626 181 615T143 592T132 580H135Q138 579 143 578T153 573T165 566T175 555T183 540T186 520Q186 498 172 481T127 463Z"></path>
<path stroke-width="1" id="E1-MJMAIN-5B" d="M118 -250V750H255V710H158V-210H255V-250H118Z"></path>
<path stroke-width="1" id="E1-MJMAIN-5D" d="M22 710V750H159V-250H22V-210H119V710H22Z"></path>
<path stroke-width="1" id="E1-MJMAIN-31" d="M213 578L200 573Q186 568 160 563T102 556H83V602H102Q149 604 189 617T245 641T273 663Q275 666 285 666Q294 666 302 660V361L303 61Q310 54 315 52T339 48T401 46H427V0H416Q395 3 257 3Q121 3 100 0H88V46H114Q136 46 152 46T177 47T193 50T201 52T207 57T213 61V578Z"></path>
<path stroke-width="1" id="E1-MJMAIN-7D" d="M65 731Q65 745 68 747T88 750Q171 750 216 725T279 670Q288 649 289 635T291 501Q292 362 293 357Q306 312 345 291T417 269Q428 269 431 266T434 250T431 234T417 231Q380 231 345 210T298 157Q293 143 292 121T291 -28V-79Q291 -134 285 -156T256 -198Q202 -250 89 -250Q71 -250 68 -247T65 -230Q65 -224 65 -223T66 -218T69 -214T77 -213Q91 -213 108 -210T146 -200T183 -177T207 -139Q208 -134 209 3L210 139Q223 196 280 230Q315 247 330 250Q305 257 280 270Q225 304 212 352L210 362L209 498Q208 635 207 640Q195 680 154 696T77 713Q68 713 67 716T65 731Z"></path>
<path stroke-width="1" id="E1-MJSZ4-28" d="M758 -1237T758 -1240T752 -1249H736Q718 -1249 717 -1248Q711 -1245 672 -1199Q237 -706 237 251T672 1700Q697 1730 716 1749Q718 1750 735 1750H752Q758 1744 758 1741Q758 1737 740 1713T689 1644T619 1537T540 1380T463 1176Q348 802 348 251Q348 -242 441 -599T744 -1218Q758 -1237 758 -1240Z"></path>
<path stroke-width="1" id="E1-MJSZ4-29" d="M33 1741Q33 1750 51 1750H60H65Q73 1750 81 1743T119 1700Q554 1207 554 251Q554 -707 119 -1199Q76 -1250 66 -1250Q65 -1250 62 -1250T56 -1249Q55 -1249 53 -1249T49 -1250Q33 -1250 33 -1239Q33 -1236 50 -1214T98 -1150T163 -1052T238 -910T311 -727Q443 -335 443 251Q443 402 436 532T405 831T339 1142T224 1438T50 1716Q33 1737 33 1741Z"></path>
</defs>
<g stroke="currentColor" fill="currentColor" stroke-width="0" transform="matrix(1 0 0 -1 0 0)">
 <use xlink:href="#E1-MJSZ3-28"></use>
<g transform="translate(903,0)">
<g transform="translate(-11,0)">
<g transform="translate(0,727)">
 <use xlink:href="#E1-MJMATHI-3C6" x="0" y="0"></use>
 <use xlink:href="#E1-MJMAIN-2D9" x="160" y="2"></use>
</g>
<g transform="translate(38,-828)">
 <use xlink:href="#E1-MJMATHI-3B8" x="15" y="0"></use>
 <use xlink:href="#E1-MJMAIN-2D9" x="83" y="265"></use>
</g>
</g>
</g>
 <use xlink:href="#E1-MJSZ3-29" x="1720" y="-1"></use>
 <use xlink:href="#E1-MJMAIN-3D" x="2735" y="0"></use>
<g transform="translate(3791,0)">
 <use xlink:href="#E1-MJSZ4-28"></use>
<g transform="translate(959,0)">
<g transform="translate(-11,0)">
<g transform="translate(481,866)">
 <use xlink:href="#E1-MJMATHI-3B8" x="0" y="0"></use>
 <use xlink:href="#E1-MJMATHI-3C3" x="719" y="0"></use>
 <use xlink:href="#E1-MJMAIN-28" x="1292" y="0"></use>
 <use xlink:href="#E1-MJMATHI-3C6" x="1681" y="0"></use>
 <use xlink:href="#E1-MJMATHI-3B8" x="2336" y="0"></use>
 <use xlink:href="#E1-MJMAIN-29" x="2805" y="0"></use>
 <use xlink:href="#E1-MJMAIN-2212" x="3417" y="0"></use>
<g transform="translate(4195,0)">
<g transform="translate(342,0)">
<rect stroke="none" width="504" height="60" x="0" y="220"></rect>
 <use transform="scale(0.707)" xlink:href="#E1-MJMATHI-3B3" x="84" y="845"></use>
 <use transform="scale(0.707)" xlink:href="#E1-MJMAIN-32" x="106" y="-589"></use>
</g>
</g>
 <use xlink:href="#E1-MJMAIN-7B" x="5162" y="0"></use>
 <use xlink:href="#E1-MJMAIN-28" x="5662" y="0"></use>
 <use xlink:href="#E1-MJMAIN-32" x="6052" y="0"></use>
<g transform="translate(6552,0)">
 <use xlink:href="#E1-MJMATHI-3C6" x="0" y="0"></use>
 <use transform="scale(0.707)" xlink:href="#E1-MJMAIN-32" x="925" y="513"></use>
</g>
 <use xlink:href="#E1-MJMATHI-3B8" x="7661" y="0"></use>
 <use xlink:href="#E1-MJMAIN-2B" x="8352" y="0"></use>
 <use xlink:href="#E1-MJMAIN-32" x="9353" y="0"></use>
<g transform="translate(9854,0)">
 <use xlink:href="#E1-MJMATHI-3B8" x="0" y="0"></use>
 <use transform="scale(0.707)" xlink:href="#E1-MJMAIN-33" x="663" y="513"></use>
</g>
 <use xlink:href="#E1-MJMAIN-29" x="10777" y="0"></use>
 <use xlink:href="#E1-MJMAIN-5B" x="11167" y="0"></use>
 <use xlink:href="#E1-MJMATHI-3C3" x="11445" y="0"></use>
 <use xlink:href="#E1-MJMAIN-28" x="12018" y="0"></use>
 <use xlink:href="#E1-MJMATHI-3C6" x="12407" y="0"></use>
 <use xlink:href="#E1-MJMATHI-3B8" x="13062" y="0"></use>
 <use xlink:href="#E1-MJMAIN-29" x="13531" y="0"></use>
<g transform="translate(13921,0)">
 <use xlink:href="#E1-MJMAIN-5D" x="0" y="0"></use>
 <use transform="scale(0.707)" xlink:href="#E1-MJMAIN-32" x="393" y="513"></use>
</g>
 <use xlink:href="#E1-MJMAIN-5B" x="14653" y="0"></use>
 <use xlink:href="#E1-MJMAIN-31" x="14931" y="0"></use>
 <use xlink:href="#E1-MJMAIN-2212" x="15654" y="0"></use>
 <use xlink:href="#E1-MJMATHI-3C3" x="16655" y="0"></use>
 <use xlink:href="#E1-MJMAIN-28" x="17227" y="0"></use>
 <use xlink:href="#E1-MJMATHI-3C6" x="17617" y="0"></use>
 <use xlink:href="#E1-MJMATHI-3B8" x="18271" y="0"></use>
 <use xlink:href="#E1-MJMAIN-29" x="18741" y="0"></use>
 <use xlink:href="#E1-MJMAIN-5D" x="19130" y="0"></use>
 <use xlink:href="#E1-MJMAIN-2B" x="19631" y="0"></use>
 <use xlink:href="#E1-MJMAIN-32" x="20632" y="0"></use>
 <use xlink:href="#E1-MJMATHI-3C6" x="21132" y="0"></use>
 <use xlink:href="#E1-MJMAIN-5B" x="21787" y="0"></use>
 <use xlink:href="#E1-MJMATHI-3C3" x="22065" y="0"></use>
 <use xlink:href="#E1-MJMAIN-28" x="22638" y="0"></use>
 <use xlink:href="#E1-MJMATHI-3C6" x="23027" y="0"></use>
 <use xlink:href="#E1-MJMATHI-3B8" x="23682" y="0"></use>
 <use xlink:href="#E1-MJMAIN-29" x="24151" y="0"></use>
<g transform="translate(24541,0)">
 <use xlink:href="#E1-MJMAIN-5D" x="0" y="0"></use>
 <use transform="scale(0.707)" xlink:href="#E1-MJMAIN-32" x="393" y="513"></use>
</g>
 <use xlink:href="#E1-MJMAIN-7D" x="25273" y="0"></use>
</g>
<g transform="translate(0,-861)">
 <use xlink:href="#E1-MJMAIN-2212" x="0" y="0"></use>
 <use xlink:href="#E1-MJMATHI-3C6" x="778" y="0"></use>
 <use xlink:href="#E1-MJMATHI-3C3" x="1683" y="0"></use>
 <use xlink:href="#E1-MJMAIN-28" x="2255" y="0"></use>
 <use xlink:href="#E1-MJMATHI-3C6" x="2645" y="0"></use>
 <use xlink:href="#E1-MJMATHI-3B8" x="3299" y="0"></use>
 <use xlink:href="#E1-MJMAIN-29" x="3769" y="0"></use>
 <use xlink:href="#E1-MJMAIN-2212" x="4380" y="0"></use>
<g transform="translate(5159,0)">
<g transform="translate(342,0)">
<rect stroke="none" width="504" height="60" x="0" y="220"></rect>
 <use transform="scale(0.707)" xlink:href="#E1-MJMATHI-3B3" x="84" y="845"></use>
 <use transform="scale(0.707)" xlink:href="#E1-MJMAIN-32" x="106" y="-589"></use>
</g>
</g>
 <use xlink:href="#E1-MJMAIN-7B" x="6125" y="0"></use>
 <use xlink:href="#E1-MJMAIN-28" x="6626" y="0"></use>
 <use xlink:href="#E1-MJMAIN-32" x="7015" y="0"></use>
 <use xlink:href="#E1-MJMATHI-3C6" x="7516" y="0"></use>
<g transform="translate(8170,0)">
 <use xlink:href="#E1-MJMATHI-3B8" x="0" y="0"></use>
 <use transform="scale(0.707)" xlink:href="#E1-MJMAIN-32" x="663" y="513"></use>
</g>
 <use xlink:href="#E1-MJMAIN-2B" x="9316" y="0"></use>
 <use xlink:href="#E1-MJMAIN-32" x="10317" y="0"></use>
<g transform="translate(10817,0)">
 <use xlink:href="#E1-MJMATHI-3C6" x="0" y="0"></use>
 <use transform="scale(0.707)" xlink:href="#E1-MJMAIN-33" x="925" y="513"></use>
</g>
 <use xlink:href="#E1-MJMAIN-29" x="11926" y="0"></use>
 <use xlink:href="#E1-MJMAIN-5B" x="12315" y="0"></use>
 <use xlink:href="#E1-MJMATHI-3C3" x="12594" y="0"></use>
 <use xlink:href="#E1-MJMAIN-28" x="13166" y="0"></use>
 <use xlink:href="#E1-MJMATHI-3C6" x="13556" y="0"></use>
 <use xlink:href="#E1-MJMATHI-3B8" x="14210" y="0"></use>
 <use xlink:href="#E1-MJMAIN-29" x="14680" y="0"></use>
<g transform="translate(15069,0)">
 <use xlink:href="#E1-MJMAIN-5D" x="0" y="0"></use>
 <use transform="scale(0.707)" xlink:href="#E1-MJMAIN-32" x="393" y="513"></use>
</g>
 <use xlink:href="#E1-MJMAIN-5B" x="15801" y="0"></use>
 <use xlink:href="#E1-MJMAIN-31" x="16080" y="0"></use>
 <use xlink:href="#E1-MJMAIN-2212" x="16803" y="0"></use>
 <use xlink:href="#E1-MJMATHI-3C3" x="17803" y="0"></use>
 <use xlink:href="#E1-MJMAIN-28" x="18376" y="0"></use>
 <use xlink:href="#E1-MJMATHI-3C6" x="18765" y="0"></use>
 <use xlink:href="#E1-MJMATHI-3B8" x="19420" y="0"></use>
 <use xlink:href="#E1-MJMAIN-29" x="19889" y="0"></use>
 <use xlink:href="#E1-MJMAIN-5D" x="20279" y="0"></use>
 <use xlink:href="#E1-MJMAIN-2B" x="20780" y="0"></use>
 <use xlink:href="#E1-MJMAIN-32" x="21780" y="0"></use>
 <use xlink:href="#E1-MJMATHI-3B8" x="22281" y="0"></use>
 <use xlink:href="#E1-MJMAIN-5B" x="22750" y="0"></use>
 <use xlink:href="#E1-MJMATHI-3C3" x="23029" y="0"></use>
 <use xlink:href="#E1-MJMAIN-28" x="23601" y="0"></use>
 <use xlink:href="#E1-MJMATHI-3C6" x="23991" y="0"></use>
 <use xlink:href="#E1-MJMATHI-3B8" x="24645" y="0"></use>
 <use xlink:href="#E1-MJMAIN-29" x="25115" y="0"></use>
<g transform="translate(25504,0)">
 <use xlink:href="#E1-MJMAIN-5D" x="0" y="0"></use>
 <use transform="scale(0.707)" xlink:href="#E1-MJMAIN-32" x="393" y="513"></use>
</g>
 <use xlink:href="#E1-MJMAIN-7D" x="26237" y="0"></use>
</g>
</g>
</g>
 <use xlink:href="#E1-MJSZ4-29" x="27853" y="0"></use>
</g>
</g>
</svg>