<svg xmlns:xlink="http://www.w3.org/1999/xlink" width="75ex" height="11.509ex" style="font-size: 15px; vertical-align: -5.671ex; max-width: 450;" viewBox="0 -2513.6 32291.5 4955.4" role="img" focusable="false" xmlns="http://www.w3.org/2000/svg">
<defs>
<path stroke-width="1" id="E1-MJMAIN-6D" d="M41 46H55Q94 46 102 60V68Q102 77 102 91T102 122T103 161T103 203Q103 234 103 269T102 328V351Q99 370 88 376T43 385H25V408Q25 431 27 431L37 432Q47 433 65 434T102 436Q119 437 138 438T167 441T178 442H181V402Q181 364 182 364T187 369T199 384T218 402T247 421T285 437Q305 442 336 442Q351 442 364 440T387 434T406 426T421 417T432 406T441 395T448 384T452 374T455 366L457 361L460 365Q463 369 466 373T475 384T488 397T503 410T523 422T546 432T572 439T603 442Q729 442 740 329Q741 322 741 190V104Q741 66 743 59T754 49Q775 46 803 46H819V0H811L788 1Q764 2 737 2T699 3Q596 3 587 0H579V46H595Q656 46 656 62Q657 64 657 200Q656 335 655 343Q649 371 635 385T611 402T585 404Q540 404 506 370Q479 343 472 315T464 232V168V108Q464 78 465 68T468 55T477 49Q498 46 526 46H542V0H534L510 1Q487 2 460 2T422 3Q319 3 310 0H302V46H318Q379 46 379 62Q380 64 380 200Q379 335 378 343Q372 371 358 385T334 402T308 404Q263 404 229 370Q202 343 195 315T187 232V168V108Q187 78 188 68T191 55T200 49Q221 46 249 46H265V0H257L234 1Q210 2 183 2T145 3Q42 3 33 0H25V46H41Z"></path>
<path stroke-width="1" id="E1-MJMAIN-61" d="M137 305T115 305T78 320T63 359Q63 394 97 421T218 448Q291 448 336 416T396 340Q401 326 401 309T402 194V124Q402 76 407 58T428 40Q443 40 448 56T453 109V145H493V106Q492 66 490 59Q481 29 455 12T400 -6T353 12T329 54V58L327 55Q325 52 322 49T314 40T302 29T287 17T269 6T247 -2T221 -8T190 -11Q130 -11 82 20T34 107Q34 128 41 147T68 188T116 225T194 253T304 268H318V290Q318 324 312 340Q290 411 215 411Q197 411 181 410T156 406T148 403Q170 388 170 359Q170 334 154 320ZM126 106Q126 75 150 51T209 26Q247 26 276 49T315 109Q317 116 318 175Q318 233 317 233Q309 233 296 232T251 223T193 203T147 166T126 106Z"></path>
<path stroke-width="1" id="E1-MJMAIN-78" d="M201 0Q189 3 102 3Q26 3 17 0H11V46H25Q48 47 67 52T96 61T121 78T139 96T160 122T180 150L226 210L168 288Q159 301 149 315T133 336T122 351T113 363T107 370T100 376T94 379T88 381T80 383Q74 383 44 385H16V431H23Q59 429 126 429Q219 429 229 431H237V385Q201 381 201 369Q201 367 211 353T239 315T268 274L272 270L297 304Q329 345 329 358Q329 364 327 369T322 376T317 380T310 384L307 385H302V431H309Q324 428 408 428Q487 428 493 431H499V385H492Q443 385 411 368Q394 360 377 341T312 257L296 236L358 151Q424 61 429 57T446 50Q464 46 499 46H516V0H510H502Q494 1 482 1T457 2T432 2T414 3Q403 3 377 3T327 1L304 0H295V46H298Q309 46 320 51T331 63Q331 65 291 120L250 175Q249 174 219 133T185 88Q181 83 181 74Q181 63 188 55T206 46Q208 46 208 23V0H201Z"></path>
<path stroke-width="1" id="E1-MJMATHI-3C6" d="M92 210Q92 176 106 149T142 108T185 85T220 72L235 70L237 71L250 112Q268 170 283 211T322 299T370 375T429 423T502 442Q547 442 582 410T618 302Q618 224 575 152T457 35T299 -10Q273 -10 273 -12L266 -48Q260 -83 252 -125T241 -179Q236 -203 215 -212Q204 -218 190 -218Q159 -215 159 -185Q159 -175 214 -2L209 0Q204 2 195 5T173 14T147 28T120 46T94 71T71 103T56 142T50 190Q50 238 76 311T149 431H162Q183 431 183 423Q183 417 175 409Q134 361 114 300T92 210ZM574 278Q574 320 550 344T486 369Q437 369 394 329T323 218Q309 184 295 109L286 64Q304 62 306 62Q423 62 498 131T574 278Z"></path>
<path stroke-width="1" id="E1-MJMATHI-6C" d="M117 59Q117 26 142 26Q179 26 205 131Q211 151 215 152Q217 153 225 153H229Q238 153 241 153T246 151T248 144Q247 138 245 128T234 90T214 43T183 6T137 -11Q101 -11 70 11T38 85Q38 97 39 102L104 360Q167 615 167 623Q167 626 166 628T162 632T157 634T149 635T141 636T132 637T122 637Q112 637 109 637T101 638T95 641T94 647Q94 649 96 661Q101 680 107 682T179 688Q194 689 213 690T243 693T254 694Q266 694 266 686Q266 675 193 386T118 83Q118 81 118 75T117 65V59Z"></path>
<path stroke-width="1" id="E1-MJMATHI-6F" d="M201 -11Q126 -11 80 38T34 156Q34 221 64 279T146 380Q222 441 301 441Q333 441 341 440Q354 437 367 433T402 417T438 387T464 338T476 268Q476 161 390 75T201 -11ZM121 120Q121 70 147 48T206 26Q250 26 289 58T351 142Q360 163 374 216T388 308Q388 352 370 375Q346 405 306 405Q243 405 195 347Q158 303 140 230T121 120Z"></path>
<path stroke-width="1" id="E1-MJMATHI-67" d="M311 43Q296 30 267 15T206 0Q143 0 105 45T66 160Q66 265 143 353T314 442Q361 442 401 394L404 398Q406 401 409 404T418 412T431 419T447 422Q461 422 470 413T480 394Q480 379 423 152T363 -80Q345 -134 286 -169T151 -205Q10 -205 10 -137Q10 -111 28 -91T74 -71Q89 -71 102 -80T116 -111Q116 -121 114 -130T107 -144T99 -154T92 -162L90 -164H91Q101 -167 151 -167Q189 -167 211 -155Q234 -144 254 -122T282 -75Q288 -56 298 -13Q311 35 311 43ZM384 328L380 339Q377 350 375 354T369 368T359 382T346 393T328 402T306 405Q262 405 221 352Q191 313 171 233T151 117Q151 38 213 38Q269 38 323 108L331 118L384 328Z"></path>
<path stroke-width="1" id="E1-MJMAIN-5B" d="M118 -250V750H255V710H158V-210H255V-250H118Z"></path>
<path stroke-width="1" id="E1-MJMAIN-31" d="M213 578L200 573Q186 568 160 563T102 556H83V602H102Q149 604 189 617T245 641T273 663Q275 666 285 666Q294 666 302 660V361L303 61Q310 54 315 52T339 48T401 46H427V0H416Q395 3 257 3Q121 3 100 0H88V46H114Q136 46 152 46T177 47T193 50T201 52T207 57T213 61V578Z"></path>
<path stroke-width="1" id="E1-MJMAIN-2212" d="M84 237T84 250T98 270H679Q694 262 694 250T679 230H98Q84 237 84 250Z"></path>
<path stroke-width="1" id="E1-MJMATHI-3C3" d="M184 -11Q116 -11 74 34T31 147Q31 247 104 333T274 430Q275 431 414 431H552Q553 430 555 429T559 427T562 425T565 422T567 420T569 416T570 412T571 407T572 401Q572 357 507 357Q500 357 490 357T476 358H416L421 348Q439 310 439 263Q439 153 359 71T184 -11ZM361 278Q361 358 276 358Q152 358 115 184Q114 180 114 178Q106 141 106 117Q106 67 131 47T188 26Q242 26 287 73Q316 103 334 153T356 233T361 278Z"></path>
<path stroke-width="1" id="E1-MJMAIN-28" d="M94 250Q94 319 104 381T127 488T164 576T202 643T244 695T277 729T302 750H315H319Q333 750 333 741Q333 738 316 720T275 667T226 581T184 443T167 250T184 58T225 -81T274 -167T316 -220T333 -241Q333 -250 318 -250H315H302L274 -226Q180 -141 137 -14T94 250Z"></path>
<path stroke-width="1" id="E1-MJMATHI-3B8" d="M35 200Q35 302 74 415T180 610T319 704Q320 704 327 704T339 705Q393 701 423 656Q462 596 462 495Q462 380 417 261T302 66T168 -10H161Q125 -10 99 10T60 63T41 130T35 200ZM383 566Q383 668 330 668Q294 668 260 623T204 521T170 421T157 371Q206 370 254 370L351 371Q352 372 359 404T375 484T383 566ZM113 132Q113 26 166 26Q181 26 198 36T239 74T287 161T335 307L340 324H145Q145 321 136 286T120 208T113 132Z"></path>
<path stroke-width="1" id="E1-MJMAIN-29" d="M60 749L64 750Q69 750 74 750H86L114 726Q208 641 251 514T294 250Q294 182 284 119T261 12T224 -76T186 -143T145 -194T113 -227T90 -246Q87 -249 86 -250H74Q66 -250 63 -250T58 -247T55 -238Q56 -237 66 -225Q221 -64 221 250T66 725Q56 737 55 738Q55 746 60 749Z"></path>
<path stroke-width="1" id="E1-MJMAIN-5D" d="M22 710V750H159V-250H22V-210H119V710H22Z"></path>
<path stroke-width="1" id="E1-MJMATHI-3B3" d="M31 249Q11 249 11 258Q11 275 26 304T66 365T129 418T206 441Q233 441 239 440Q287 429 318 386T371 255Q385 195 385 170Q385 166 386 166L398 193Q418 244 443 300T486 391T508 430Q510 431 524 431H537Q543 425 543 422Q543 418 522 378T463 251T391 71Q385 55 378 6T357 -100Q341 -165 330 -190T303 -216Q286 -216 286 -188Q286 -138 340 32L346 51L347 69Q348 79 348 100Q348 257 291 317Q251 355 196 355Q148 355 108 329T51 260Q49 251 47 251Q45 249 31 249Z"></path>
<path stroke-width="1" id="E1-MJMAIN-32" d="M109 429Q82 429 66 447T50 491Q50 562 103 614T235 666Q326 666 387 610T449 465Q449 422 429 383T381 315T301 241Q265 210 201 149L142 93L218 92Q375 92 385 97Q392 99 409 186V189H449V186Q448 183 436 95T421 3V0H50V19V31Q50 38 56 46T86 81Q115 113 136 137Q145 147 170 174T204 211T233 244T261 278T284 308T305 340T320 369T333 401T340 431T343 464Q343 527 309 573T212 619Q179 619 154 602T119 569T109 550Q109 549 114 549Q132 549 151 535T170 489Q170 464 154 447T109 429Z"></path>
<path stroke-width="1" id="E1-MJMAIN-2B" d="M56 237T56 250T70 270H369V420L370 570Q380 583 389 583Q402 583 409 568V270H707Q722 262 722 250T707 230H409V-68Q401 -82 391 -82H389H387Q375 -82 369 -68V230H70Q56 237 56 250Z"></path>
<path stroke-width="1" id="E1-MJMAIN-69" d="M69 609Q69 637 87 653T131 669Q154 667 171 652T188 609Q188 579 171 564T129 549Q104 549 87 564T69 609ZM247 0Q232 3 143 3Q132 3 106 3T56 1L34 0H26V46H42Q70 46 91 49Q100 53 102 60T104 102V205V293Q104 345 102 359T88 378Q74 385 41 385H30V408Q30 431 32 431L42 432Q52 433 70 434T106 436Q123 437 142 438T171 441T182 442H185V62Q190 52 197 50T232 46H255V0H247Z"></path>
<path stroke-width="1" id="E1-MJMAIN-6E" d="M41 46H55Q94 46 102 60V68Q102 77 102 91T102 122T103 161T103 203Q103 234 103 269T102 328V351Q99 370 88 376T43 385H25V408Q25 431 27 431L37 432Q47 433 65 434T102 436Q119 437 138 438T167 441T178 442H181V402Q181 364 182 364T187 369T199 384T218 402T247 421T285 437Q305 442 336 442Q450 438 463 329Q464 322 464 190V104Q464 66 466 59T477 49Q498 46 526 46H542V0H534L510 1Q487 2 460 2T422 3Q319 3 310 0H302V46H318Q379 46 379 62Q380 64 380 200Q379 335 378 343Q372 371 358 385T334 402T308 404Q263 404 229 370Q202 343 195 315T187 232V168V108Q187 78 188 68T191 55T200 49Q221 46 249 46H265V0H257L234 1Q210 2 183 2T145 3Q42 3 33 0H25V46H41Z"></path>
</defs>
<g stroke="currentColor" fill="currentColor" stroke-width="0" transform="matrix(1 0 0 -1 0 0)">
<g transform="translate(5402,0)">
<g transform="translate(167,0)">
<g transform="translate(-11,0)">
<g transform="translate(0,1220)">
<g transform="translate(166,0)">
 <use xlink:href="#E1-MJMAIN-6D"></use>
 <use xlink:href="#E1-MJMAIN-61" x="833" y="0"></use>
 <use xlink:href="#E1-MJMAIN-78" x="1334" y="0"></use>
 <use transform="scale(0.707)" xlink:href="#E1-MJMATHI-3C6" x="989" y="-866"></use>
</g>
 <use xlink:href="#E1-MJMATHI-6C" x="2445" y="0"></use>
 <use xlink:href="#E1-MJMATHI-6F" x="2744" y="0"></use>
 <use xlink:href="#E1-MJMATHI-67" x="3229" y="0"></use>
 <use xlink:href="#E1-MJMAIN-5B" x="3960" y="0"></use>
 <use xlink:href="#E1-MJMAIN-31" x="4238" y="0"></use>
 <use xlink:href="#E1-MJMAIN-2212" x="4961" y="0"></use>
 <use xlink:href="#E1-MJMATHI-3C3" x="5962" y="0"></use>
 <use xlink:href="#E1-MJMAIN-28" x="6534" y="0"></use>
 <use xlink:href="#E1-MJMATHI-3C6" x="6924" y="0"></use>
 <use xlink:href="#E1-MJMATHI-3B8" x="7578" y="0"></use>
 <use xlink:href="#E1-MJMAIN-29" x="8048" y="0"></use>
 <use xlink:href="#E1-MJMAIN-5D" x="8437" y="0"></use>
 <use xlink:href="#E1-MJMAIN-2212" x="8938" y="0"></use>
<g transform="translate(9717,0)">
<g transform="translate(342,0)">
<rect stroke="none" width="663" height="60" x="0" y="220"></rect>
 <use xlink:href="#E1-MJMATHI-3B3" x="60" y="736"></use>
 <use xlink:href="#E1-MJMAIN-32" x="81" y="-687"></use>
</g>
</g>
 <use xlink:href="#E1-MJMAIN-5B" x="10842" y="0"></use>
 <use xlink:href="#E1-MJMAIN-28" x="11121" y="0"></use>
 <use xlink:href="#E1-MJMATHI-3B8" x="11510" y="0"></use>
 <use xlink:href="#E1-MJMATHI-3C3" x="11980" y="0"></use>
 <use xlink:href="#E1-MJMAIN-28" x="12552" y="0"></use>
 <use xlink:href="#E1-MJMATHI-3C6" x="12942" y="0"></use>
 <use xlink:href="#E1-MJMATHI-3B8" x="13596" y="0"></use>
 <use xlink:href="#E1-MJMAIN-29" x="14066" y="0"></use>
<g transform="translate(14455,0)">
 <use xlink:href="#E1-MJMAIN-29" x="0" y="0"></use>
 <use transform="scale(0.707)" xlink:href="#E1-MJMAIN-32" x="550" y="583"></use>
</g>
 <use xlink:href="#E1-MJMAIN-2B" x="15521" y="0"></use>
 <use xlink:href="#E1-MJMAIN-28" x="16522" y="0"></use>
 <use xlink:href="#E1-MJMATHI-3C6" x="16911" y="0"></use>
 <use xlink:href="#E1-MJMATHI-3C3" x="17566" y="0"></use>
 <use xlink:href="#E1-MJMAIN-28" x="18138" y="0"></use>
 <use xlink:href="#E1-MJMATHI-3C6" x="18528" y="0"></use>
 <use xlink:href="#E1-MJMATHI-3B8" x="19182" y="0"></use>
 <use xlink:href="#E1-MJMAIN-29" x="19652" y="0"></use>
<g transform="translate(20041,0)">
 <use xlink:href="#E1-MJMAIN-29" x="0" y="0"></use>
 <use transform="scale(0.707)" xlink:href="#E1-MJMAIN-32" x="550" y="583"></use>
</g>
 <use xlink:href="#E1-MJMAIN-5D" x="20884" y="0"></use>
</g>
<g transform="translate(0,-1125)">
<g transform="translate(166,0)">
 <use xlink:href="#E1-MJMAIN-6D"></use>
 <use xlink:href="#E1-MJMAIN-69" x="833" y="0"></use>
 <use xlink:href="#E1-MJMAIN-6E" x="1112" y="0"></use>
 <use transform="scale(0.707)" xlink:href="#E1-MJMATHI-3B8" x="945" y="-944"></use>
</g>
 <use xlink:href="#E1-MJMATHI-6C" x="2251" y="0"></use>
 <use xlink:href="#E1-MJMATHI-6F" x="2550" y="0"></use>
 <use xlink:href="#E1-MJMATHI-67" x="3035" y="0"></use>
 <use xlink:href="#E1-MJMAIN-5B" x="3766" y="0"></use>
 <use xlink:href="#E1-MJMAIN-31" x="4044" y="0"></use>
 <use xlink:href="#E1-MJMAIN-2212" x="4767" y="0"></use>
 <use xlink:href="#E1-MJMATHI-3C3" x="5768" y="0"></use>
 <use xlink:href="#E1-MJMAIN-28" x="6340" y="0"></use>
 <use xlink:href="#E1-MJMATHI-3C6" x="6730" y="0"></use>
 <use xlink:href="#E1-MJMATHI-3B8" x="7384" y="0"></use>
 <use xlink:href="#E1-MJMAIN-29" x="7854" y="0"></use>
 <use xlink:href="#E1-MJMAIN-5D" x="8243" y="0"></use>
 <use xlink:href="#E1-MJMAIN-2B" x="8744" y="0"></use>
<g transform="translate(9523,0)">
<g transform="translate(342,0)">
<rect stroke="none" width="663" height="60" x="0" y="220"></rect>
 <use xlink:href="#E1-MJMATHI-3B3" x="60" y="736"></use>
 <use xlink:href="#E1-MJMAIN-32" x="81" y="-687"></use>
</g>
</g>
 <use xlink:href="#E1-MJMAIN-5B" x="10648" y="0"></use>
 <use xlink:href="#E1-MJMAIN-28" x="10927" y="0"></use>
 <use xlink:href="#E1-MJMATHI-3B8" x="11316" y="0"></use>
 <use xlink:href="#E1-MJMATHI-3C3" x="11786" y="0"></use>
 <use xlink:href="#E1-MJMAIN-28" x="12358" y="0"></use>
 <use xlink:href="#E1-MJMATHI-3C6" x="12748" y="0"></use>
 <use xlink:href="#E1-MJMATHI-3B8" x="13402" y="0"></use>
 <use xlink:href="#E1-MJMAIN-29" x="13872" y="0"></use>
<g transform="translate(14261,0)">
 <use xlink:href="#E1-MJMAIN-29" x="0" y="0"></use>
 <use transform="scale(0.707)" xlink:href="#E1-MJMAIN-32" x="550" y="583"></use>
</g>
 <use xlink:href="#E1-MJMAIN-2B" x="15327" y="0"></use>
 <use xlink:href="#E1-MJMAIN-28" x="16328" y="0"></use>
 <use xlink:href="#E1-MJMATHI-3C6" x="16717" y="0"></use>
 <use xlink:href="#E1-MJMATHI-3C3" x="17372" y="0"></use>
 <use xlink:href="#E1-MJMAIN-28" x="17944" y="0"></use>
 <use xlink:href="#E1-MJMATHI-3C6" x="18334" y="0"></use>
 <use xlink:href="#E1-MJMATHI-3B8" x="18988" y="0"></use>
 <use xlink:href="#E1-MJMAIN-29" x="19458" y="0"></use>
<g transform="translate(19847,0)">
 <use xlink:href="#E1-MJMAIN-29" x="0" y="0"></use>
 <use transform="scale(0.707)" xlink:href="#E1-MJMAIN-32" x="550" y="583"></use>
</g>
 <use xlink:href="#E1-MJMAIN-5D" x="20690" y="0"></use>
</g>
</g>
</g>
</g>
</g>
</svg>